<svg id="Layer_2" data-name="Layer 2" xmlns="http://www.w3.org/2000/svg" width="100" height="100" viewBox="0 0 100 100"><circle cx="49.8987" cy="50.226" r="48.8275" fill="#2a4120"/><g id="Blur_Droplet_04_AS_Green_Flat" data-name="Blur Droplet 04 AS Green Flat"><path d="M87.2518,19.4308l3.7266,5.3127c.068.553.1389,1.1056.2032,1.659a44.8944,44.8944,0,0,1,.6963,6.5194c-.1206,3.7415-.5306,7.48-.9636,11.2026a45.4154,45.4154,0,0,1-1.199,5.9618,11.3723,11.3723,0,0,1-1.1777,2.1188c-.3615.7023-1.0156,1.5076-.8926,2.1418.1571.81,1.3677,1.471,1.4126,2.2378a17.2274,17.2274,0,0,1-.3743,5.86,81.8888,81.8888,0,0,1-3.2407,7.5675c-2.0626,4.9635-4.555,9.6911-9.1086,12.7732-3.4673,2.3468-7.0652,4.75-10.9564,6.1545a54.0238,54.0238,0,0,1-13.5548,2.8059,44.5748,44.5748,0,0,1-12.308-.685c-4.0777-.8011-7.9966-2.4935-11.9105-3.9906-1.0655-.4076-1.8256-1.5663-2.79-2.2953-1.7462-1.32-3.6544-2.4465-5.2913-3.8855-3.353-2.9472-6.3785-6.2338-7.55-10.6893a53.9707,53.9707,0,0,1-1.5319-8.5715c-.2164-2.2752.2956-4.6159.1207-6.9-.3006-3.9262-.97-7.8232-1.3151-11.7473a19.994,19.994,0,0,1,.0773-6.3468,80.5465,80.5465,0,0,1,3.4821-10.4076c.8344-2.1132,2.1419-4.0362,3.1717-6.0775.3452-.6841.2858-1.6536.76-2.1773,1.9468-2.1513,3.7613-4.5768,6.12-6.1664C26.74,9.19,30.9908,7.1135,35.121,4.8731,36.3617,4.2,37.7172,3.7386,39.02,3.18l.4116-.0955.1907.2724.2145-.3481c.34-.0958.6766-.213,1.0223-.2835,1.4311-.2918,2.8651-.57,4.2981-.8524H48.315c-.0358.1967-.0382.5518-.1123.5674-5.2056,1.1008-10.4212,1.9922-15.1062,4.896-4.1473,2.5706-8.5711,4.71-11.6343,8.68-2.5849,3.35-5.4134,6.5806-7.4958,10.2284a36.131,36.131,0,0,0-3.262,9.3846,16.7711,16.7711,0,0,0,1.432,12.1171A4.7955,4.7955,0,0,0,15.01,50.1281c5.4573.7984,10.9616,1.2737,16.4462,1.89a4.7441,4.7441,0,0,1,1.1872.48c-.2706.3769-.4586.9233-.8257,1.102-1.8.8768-3.6739,1.6037-5.4736,2.4819-2.4549,1.1979-4.7773,2.7246-7.32,3.67-2.8315,1.0523-4.9777,2.4882-5.122,5.7107a12.6773,12.6773,0,0,0,.4842,4.72c2.0666,5.7932,6.7626,8.8616,12.17,10.9912a45.8733,45.8733,0,0,0,6.2918,1.7582,1.9451,1.9451,0,0,0,1.4567-.5049c.7336-.6536,1.2007-1.8241,2.0178-2.1214,1.7765-.6463,3.8723-.5429,5.5228-1.3723,1.725-.867,3.9176.5614,5.2782-1.3438a.5529.5529,0,0,1,.5324-.008c1.1255,1.2623,2.3506.72,3.6537.3545.5646-.1584,1.8759-1.0087,1.674.8208a2.1369,2.1369,0,0,0,1.1049.2508,5.0305,5.0305,0,0,0,1.27-.6108c-.1569.5091-.3228,1.0157-.4663,1.5286-.0554.1982-.1317.5657-.0759.5916a4.6544,4.6544,0,0,0,1.1712.3725c.1029.0173.3836-.2727.3617-.3734-.3337-1.5346.67-.7133,1.2012-.6873.3844.0189.7682.1258,1.15.1143,2.28-.0686,4.3177-1.9992,6.8861-.4683,1.2122.7225,3.0637.2738,4.5389.6746a7.3584,7.3584,0,0,0,7.1658-2.2211,29.2992,29.2992,0,0,0,5.6534-8.8463c.795-1.8428.44-4.3382.1124-6.4641-.3206-2.0774-1.6732-3.6619-3.2066-5.28a13.6386,13.6386,0,0,0-9.3377-4.4683,6.8605,6.8605,0,0,1-2.211-1.0872c.2419-.2742.446-.73.7326-.7894a9.1585,9.1585,0,0,1,2.8977-.3314c3.9688.49,7.7568.1041,11.1476-2.16,1.8245-1.2182,4.1916-2.2827,5.1212-4.0455,1.9561-3.7089,3.3231-7.8027,2.7227-12.1814-.2012-1.4671-.6276-2.9033-.9512-4.3536q-.0043-.2961-.0084-.5921l-.1909-.3924a19.7334,19.7334,0,0,0-.4811-1.9543C88.6373,23.1228,87.9353,21.28,87.2518,19.4308Z" fill="#356d1d"/><path d="M89.9726,27.9209c.3235,1.45.75,2.8865.9511,4.3536.6,4.3787-.7666,8.4725-2.7227,12.1814-.93,1.7628-3.2967,2.8273-5.1212,4.0455-3.3908,2.264-7.1788,2.65-11.1476,2.16a9.1585,9.1585,0,0,0-2.8977.3314c-.2866.06-.4907.5152-.7326.7894a6.8605,6.8605,0,0,0,2.211,1.0872,13.6386,13.6386,0,0,1,9.3377,4.4683c1.5334,1.6184,2.886,3.2029,3.2066,5.28.328,2.1259.6826,4.6213-.1124,6.4641a29.2992,29.2992,0,0,1-5.6534,8.8463,7.3584,7.3584,0,0,1-7.1658,2.2211c-1.4752-.4008-3.3267.0479-4.5389-.6746-2.5684-1.5309-4.6063.4-6.8861.4683-.3816.0115-.7654-.0954-1.15-.1143-.531-.026-1.5349-.8473-1.2012.6873.0219.1007-.2588.3907-.3617.3734a4.6544,4.6544,0,0,1-1.1712-.3725c-.0558-.0259.0205-.3934.0759-.5916.1435-.5129.3094-1.0195.4663-1.5286a5.0305,5.0305,0,0,1-1.27.6108,2.1369,2.1369,0,0,1-1.1049-.2508c.2019-1.8295-1.1094-.9792-1.674-.8208-1.3031.3656-2.5282.9078-3.6537-.3545a.5529.5529,0,0,0-.5324.008c-1.3606,1.9052-3.5532.4768-5.2782,1.3438-1.6505.8294-3.7463.726-5.5228,1.3723-.8171.2973-1.2842,1.4678-2.0178,2.1214a1.9451,1.9451,0,0,1-1.4567.5049,45.8733,45.8733,0,0,1-6.2918-1.7582c-5.4077-2.13-10.1037-5.198-12.17-10.9912a12.6773,12.6773,0,0,1-.4842-4.72c.1443-3.2225,2.29-4.6584,5.122-5.7107,2.543-.9451,4.8654-2.4718,7.32-3.67,1.8-.8782,3.6732-1.6051,5.4736-2.4819.3671-.1787.5551-.7251.8257-1.102a4.7441,4.7441,0,0,0-1.1872-.48c-5.4846-.6168-10.9889-1.0921-16.4462-1.89a4.7955,4.7955,0,0,1-2.8739-2.3814A16.7711,16.7711,0,0,1,10.7044,35.63a36.131,36.131,0,0,1,3.262-9.3846c2.0824-3.6478,4.9109-6.8783,7.4958-10.2284,3.0632-3.97,7.487-6.1094,11.6343-8.68,4.685-2.9038,9.9006-3.7952,15.1062-4.896.0741-.0156.0765-.3707.1123-.5674h6.1181l5.5182,1.069c.0623.1445.085.3676.1926.4216,2.6043,1.3085,5.1587,2.742,7.8466,3.851,2.51,1.0353,5.1627,1.7226,7.7526,2.563a13.996,13.996,0,0,1-3.4791.2315c-.9942-.1743-1.856-1.0008-2.8325-1.4026-1.5585-.6412-3.3462-.894-4.7116-1.8009a20.31,20.31,0,0,0-9.714-3.7048A35.4017,35.4017,0,0,0,42.7794,4.3085a36.094,36.094,0,0,0-3.5453,1.3122,34.5415,34.5415,0,0,0-3.85,1.2861,25.6349,25.6349,0,0,0-3.96,2.2973c-2.7167,1.909-5.6394,3.6392-7.9695,5.9541-2.8,2.782-4.9584,6.1981-7.6082,9.1477-2.1885,2.4363-2.8709,5.4087-3.63,8.38-.8895,3.4823-.3551,6.94.4507,10.3716.4921,2.0952,1.1662,4.2569,3.3915,4.9209,3.6284,1.0826,7.3568,1.8436,11.0634,2.6458,2.8729.6218,5.78,1.0859,8.6637,1.6584a3.5419,3.5419,0,0,1,.9835.5743c-.1794.2877-.29.6961-.55.8433-1.5012.8528-3,1.7261-4.5714,2.4344-1.7972.81-3.913,1.1209-5.4544,2.246a62.4967,62.4967,0,0,0-7.5162,6.6513c-2.202,2.2311-.9761,6.6924,1.9627,7.2423a46.8665,46.8665,0,0,0,10.2061,1.2072c1.9244-.0717,3.8254-1.6741,5.6662-2.7128.9534-.5379,2.2938-1.2046,2.5235-2.0635.8061-3.014,3.3245-2.57,5.3283-2.85,1.6323-.2276,3.3554.2836,5.0421.3318,1.5619.0445,3.1287-.1234,4.6939-.1376,1.6655-.0151,3.334-.0791,4.5374,1.4816,1.3852,1.7965,3.3683,2.406,5.533,2.9058a31.5606,31.5606,0,0,1,7.0554,2.5169,6.2273,6.2273,0,0,0,5.7067.3586,8.3215,8.3215,0,0,0,3.8407-9.6389c-1.0441-4.1106-4.354-6.2487-7.7967-7.8559-3.0771-1.4365-6.5027-2.1218-9.7605-3.1815a4.265,4.265,0,0,1-1.0769-.7987c.3909-.2715.7526-.7088,1.1781-.7837,1.343-.2363,2.719-.2815,4.0653-.5032,1.9718-.3246,3.9357-.706,5.8905-1.1219a43.4154,43.4154,0,0,0,6.93-1.6666c1.58-.6233,2.8085-2.09,4.2729-3.0608,3.2685-2.1674,4.0334-5.6968,5.0921-9.08Q89.77,31.7714,89.9726,27.9209Z" fill="#3c831f"/><path d="M92.3569,27.8555a22.98,22.98,0,0,1,2.4054,4.197,66.8764,66.8764,0,0,1,3.0426,11.1931,60.8514,60.8514,0,0,1,.2073,11.684,43.33,43.33,0,0,1-4.6505,17.0045,48.4435,48.4435,0,0,1-91.4812-15.95,3.2779,3.2779,0,0,0-.34-.8244V45.4894a3.2423,3.2423,0,0,0,.34-.8222A48.4456,48.4456,0,0,1,13.14,18.8228a21.7318,21.7318,0,0,1,2.4071-2.1716,4.0638,4.0638,0,0,1-.1838,1.1655c-2.587,5.32-6.61,9.9538-7.6831,15.9968-.7826,4.4091-1.6569,8.81-2.2008,13.25A31.8285,31.8285,0,0,0,5.84,53.1879c.25,3.3265.1881,6.7183.8452,9.9636a37.6668,37.6668,0,0,0,8.1054,16.3313c2.1433,2.6258,4.287,5.5512,7.0874,7.2734A73.7948,73.7948,0,0,0,36.7813,93.9a35.9341,35.9341,0,0,0,18.6339,1.3522c3.2549-.65,6.6537-.9627,9.71-2.1452a47.7692,47.7692,0,0,0,16.7681-11.38,46.5418,46.5418,0,0,0,9.2409-13.5736,38.2527,38.2527,0,0,0,2.3852-9.3307,60.9633,60.9633,0,0,0,1.2477-11.438c-.0954-4.4024-1.0036-8.7875-1.5669-13.1791C92.9285,32.0879,92.6385,29.9722,92.3569,27.8555Z" fill="#28461c"/><path d="M15.5469,16.6512l.2372-.3709.7484-.8116A45.3578,45.3578,0,0,1,39.02,3.18c-1.3028.5583-2.6583,1.02-3.899,1.6928-4.13,2.24-8.3811,4.3164-12.2636,6.9333-2.3585,1.59-4.173,4.0151-6.12,6.1664-.4739.5237-.4145,1.4932-.76,2.1773-1.03,2.0413-2.3373,3.9643-3.1717,6.0775A80.5465,80.5465,0,0,0,9.3241,36.6352a19.994,19.994,0,0,0-.0773,6.3468c.3451,3.9241,1.0145,7.8211,1.3151,11.7473.1749,2.2837-.3371,4.6244-.1207,6.9A53.9707,53.9707,0,0,0,11.9731,70.2c1.1712,4.4555,4.1967,7.7421,7.55,10.6893,1.6369,1.439,3.5451,2.5656,5.2913,3.8855.9646.729,1.7247,1.8877,2.79,2.2953,3.9139,1.4971,7.8328,3.19,11.9105,3.9906a44.5748,44.5748,0,0,0,12.308.685A54.0238,54.0238,0,0,0,65.3776,88.94c3.8912-1.4044,7.4891-3.8077,10.9564-6.1545,4.5536-3.0821,7.046-7.81,9.1086-12.7732a81.8888,81.8888,0,0,0,3.2407-7.5675,17.2274,17.2274,0,0,0,.3743-5.86c-.0449-.7668-1.2555-1.4274-1.4126-2.2378-.123-.6342.5311-1.4395.8926-2.1418a11.3723,11.3723,0,0,0,1.1777-2.1188,45.4154,45.4154,0,0,0,1.199-5.9618c.433-3.7228.843-7.4611.9636-11.2026a44.8944,44.8944,0,0,0-.6963-6.5194c-.0643-.5534-.1352-1.106-.2032-1.659l1.3785,3.112c.2816,2.1167.5716,4.2324.8432,6.35.5633,4.3916,1.4715,8.7767,1.5669,13.1791a60.9633,60.9633,0,0,1-1.2477,11.438,38.2527,38.2527,0,0,1-2.3852,9.3307,46.5418,46.5418,0,0,1-9.2409,13.5736,47.7692,47.7692,0,0,1-16.7681,11.38c-3.0562,1.1825-6.455,1.4952-9.71,2.1452A35.9341,35.9341,0,0,1,36.7813,93.9a73.7948,73.7948,0,0,1-14.9034-7.1435c-2.8-1.7222-4.9441-4.6476-7.0874-7.2734A37.6668,37.6668,0,0,1,6.6851,63.1515C6.028,59.9062,6.09,56.5144,5.84,53.1879a31.8285,31.8285,0,0,1-.3607-6.1245c.5439-4.44,1.4182-8.8408,2.2008-13.25,1.0726-6.043,5.0961-10.6765,7.6831-15.9968A4.0638,4.0638,0,0,0,15.5469,16.6512Z" fill="#2e581c"/><path d="M39.2341,5.6207a36.094,36.094,0,0,1,3.5453-1.3122A35.4017,35.4017,0,0,1,55.0059,3.101,20.31,20.31,0,0,1,64.72,6.8058c1.3654.9069,3.1531,1.16,4.7116,1.8009.9765.4018,1.8383,1.2283,2.8325,1.4026a13.9914,13.9914,0,0,0,3.4791-.2316l.3993-.18,11.11,9.8336c.6834,1.8491,1.3854,3.6919,2.04,5.5512a19.7051,19.7051,0,0,1,.481,1.9543q.0954.1962.191.3924.0042.2961.0084.5921-.2022,3.85-.4047,7.7008c-.33.5829-.6535,1.169-.99,1.748-.6553,1.129-1.3173,2.2541-1.9766,3.3809A78.7341,78.7341,0,0,0,89.387,33.214c.3165-1.1806-.2489-2.5976-.4143-3.9073l-.0034-.3966a2.07,2.07,0,0,0,.0765-.8078,19.1913,19.1913,0,0,0-1.508-3.9677c-1.3225-2.12-1.9748-4.8041-4.85-5.739A9.0927,9.0927,0,0,1,79.82,16.2815a38.017,38.017,0,0,0-3.8922-3.64c-.8806-.5862-2.3527-.2088-3.3759-.67C69.7169,10.6925,66.9809,9.1949,64.2,7.7959c-1.9408-.9762-3.8-2.4013-5.8566-2.8023-4.542-.8858-9.1871-1.13-13.6973.4417-2.837.9888-5.8264,1.73-8.4214,3.17A46.48,46.48,0,0,0,29.16,14.06c-1.5623,1.3191-3.6136,2.5756-4.2975,4.3124-1.4911,3.7865-4.271,6.41-7.0239,9.021-2.5319,2.4012-2.6012,5.4132-2.7592,8.3438a19.3693,19.3693,0,0,0,1.1539,6.2c.3429,1.1824.9268,2.71,1.87,3.224A39.3408,39.3408,0,0,0,26.41,48.6661c3.483.953,7.1464,1.2276,10.6792,2.0279,1.242.2813,2.95,1.0115,3.3148,1.9677.3792.995-.597,2.5143-1.0065,3.796-.095.2974-.4779.75-.4172.8089.3406.328.7723.7785,1.18.7859,4.4705.0818,8.9308-.0544,13.1983,1.788,2.4221,1.0457,5.05,1.6031,7.5341,2.52,3.0132,1.1116,5.9346,2.4835,8.9792,3.49.8317.2751,1.9674-.337,2.9539-.5811.297-.0735.5683-.4158.84-.4019a1.7084,1.7084,0,0,0,1.824-2.2788,8.9762,8.9762,0,0,0-2.8645-3.4636c-2.4588-1.85-4.9353-3.782-8.3887-3.43a4.2068,4.2068,0,0,1-2.769-.8595A6.421,6.421,0,0,1,59.5,52.0447c-.1253-.3592.9345-1.3838,1.6366-1.7138a10.3109,10.3109,0,0,1,2.7753-.488c-.2612.1282-.5269.2483-.7829.3862a11.7066,11.7066,0,0,0-2.3625,1.3843,2.1081,2.1081,0,0,0,.6745,1.6446c3.1083,1.0951,6.4076,1.7392,9.3746,3.1128,2.0379.9434,3.6758,2.7883,5.4219,4.3113a4.1,4.1,0,0,1,1.5844,4.0817c-.2619,1.6935-1.3332,2.2223-2.3894,3.1089a6.3955,6.3955,0,0,1-7.1083.6965,58.3127,58.3127,0,0,0-6.8729-4.1165A58.6678,58.6678,0,0,0,52.48,61.4464a68.5114,68.5114,0,0,0-8.4127-1.5232c-3.71-.4853-6.9517,1.3736-10.3612,2.3611a4.3843,4.3843,0,0,0-1.624.8052c-1.4124,1.22-2.6671,2.6414-4.1654,3.7344a5.7913,5.7913,0,0,1-2.7039.5314c-.1714.017-.4555-.4317-.5752-.7133-.2122-.4993-.6388-1.2416-.4478-1.5195a18.9614,18.9614,0,0,1,2.65-3.0975,21.9889,21.9889,0,0,1,3.3042-2.5259c.9388-.5907,2.0606-.8842,3.0289-1.4363.9932-.5663,1.8513-1.3758,2.8584-1.9091.7027-.3722,1.7185-.2568,2.3019-.7242a4.1366,4.1366,0,0,0,1.5113-2.315c.0685-.445-.966-1.3332-1.655-1.5621a16.7108,16.7108,0,0,0-3.9992-.7152,56.6965,56.6965,0,0,1-17.1649-3.693,4.0666,4.0666,0,0,1-2.1783-2.0535,45.5623,45.5623,0,0,1-1.9044-7.3933,15.285,15.285,0,0,1,2.93-12.1026,73.5207,73.5207,0,0,1,7.014-8.1574A61.2669,61.2669,0,0,1,31.03,10.8342a88.55,88.55,0,0,1,8.151-4.5633,12.5091,12.5091,0,0,1,1.7324-.6386Z" fill="#549930"/><path d="M76.1424,9.5973l-.3993.18c-2.59-.84-5.2431-1.5276-7.7526-2.5629-2.6879-1.109-5.2423-2.5425-7.8466-3.851-.1076-.054-.13-.2771-.1926-.4216A47.4283,47.4283,0,0,1,76.1424,9.5973Z" fill="#356d1d"/><path d="M39.4317,3.0848l.4051-.0757-.2144.3481Z" fill="#2e581c"/><path d="M89.9641,27.3288q-.0956-.1962-.191-.3924Q89.8688,27.1326,89.9641,27.3288Z" fill="#3c831f"/><path d="M39.2341,5.6207l1.6793.0116a12.5091,12.5091,0,0,0-1.7324.6386,88.55,88.55,0,0,0-8.151,4.5633,61.2669,61.2669,0,0,0-8.1439,6.6032,73.5207,73.5207,0,0,0-7.014,8.1574,15.285,15.285,0,0,0-2.93,12.1026,45.5623,45.5623,0,0,0,1.9044,7.3933,4.0666,4.0666,0,0,0,2.1783,2.0535A56.6965,56.6965,0,0,0,34.19,50.8372a16.7108,16.7108,0,0,1,3.9992.7152c.689.2289,1.7235,1.1171,1.655,1.5621A4.1366,4.1366,0,0,1,38.333,55.43c-.5834.4674-1.5992.352-2.3019.7242-1.0071.5333-1.8652,1.3428-2.8584,1.9091-.9683.5521-2.09.8456-3.0289,1.4363A21.9889,21.9889,0,0,0,26.84,62.025a18.9614,18.9614,0,0,0-2.65,3.0975c-.191.2779.2356,1.02.4478,1.5195.12.2816.4038.73.5752.7133a5.7913,5.7913,0,0,0,2.7039-.5314c1.4983-1.093,2.753-2.5145,4.1654-3.7344a4.3843,4.3843,0,0,1,1.624-.8052c3.41-.9875,6.6511-2.8464,10.3612-2.3611A68.5114,68.5114,0,0,1,52.48,61.4464a58.6678,58.6678,0,0,1,8.9713,3.0063,58.3127,58.3127,0,0,1,6.8729,4.1165,6.3955,6.3955,0,0,0,7.1083-.6965c1.0562-.8866,2.1275-1.4154,2.3894-3.1089a4.1,4.1,0,0,0-1.5844-4.0817c-1.7461-1.523-3.384-3.3679-5.4219-4.3113-2.967-1.3736-6.2663-2.0177-9.3746-3.1128a2.1081,2.1081,0,0,1-.6745-1.6446,11.7066,11.7066,0,0,1,2.3625-1.3843c.256-.1379.5217-.258.7829-.3863q.1956-.0023.3915-.0042l2.5636-.3995c2.4033-.2438,4.8161-.42,7.2067-.7549,1.6259-.2278,3.2208-.6775,4.8295-1.028L81.8654,45.49l.0015-.0013,3.5476-2.9621.5976-.9849.5882-.79.0013-.0013c.6593-1.1268,1.3213-2.2519,1.9766-3.3809.3361-.579.66-1.1651.99-1.748-1.0587,3.3831-1.8236,6.9125-5.0921,9.08-1.4644.9711-2.6932,2.4375-4.2729,3.0608a43.4154,43.4154,0,0,1-6.93,1.6666c-1.9548.4159-3.9187.7973-5.8905,1.1219-1.3463.2217-2.7223.2669-4.0653.5032-.4255.0749-.7872.5122-1.1781.7837a4.265,4.265,0,0,0,1.0769.7987c3.2578,1.06,6.6834,1.745,9.7605,3.1815,3.4427,1.6072,6.7526,3.7453,7.7967,7.8559a8.3215,8.3215,0,0,1-3.8407,9.6389,6.2273,6.2273,0,0,1-5.7067-.3586,31.5606,31.5606,0,0,0-7.0554-2.5169c-2.1647-.5-4.1478-1.1093-5.533-2.9058C57.4341,65.9708,55.7656,66.0348,54.1,66.05c-1.5652.0142-3.132.1821-4.6939.1376-1.6867-.0482-3.41-.5594-5.0421-.3318-2.0038.2793-4.5222-.1643-5.3283,2.85-.23.8589-1.57,1.5256-2.5235,2.0635-1.8408,1.0387-3.7418,2.6411-5.6662,2.7128A46.8665,46.8665,0,0,1,20.64,72.2745c-2.9388-.55-4.1647-5.0112-1.9627-7.2423a62.4967,62.4967,0,0,1,7.5162-6.6513c1.5414-1.1251,3.6572-1.4357,5.4544-2.246,1.5711-.7083,3.07-1.5816,4.5714-2.4344.2592-.1472.37-.5556.55-.8433a3.5419,3.5419,0,0,0-.9835-.5743c-2.8841-.5725-5.7908-1.0366-8.6637-1.6584-3.7066-.8022-7.435-1.5632-11.0634-2.6458-2.2253-.664-2.8994-2.8257-3.3915-4.9209-.8058-3.4313-1.34-6.8893-.4507-10.3716.759-2.9716,1.4414-5.944,3.63-8.38,2.65-2.95,4.8079-6.3657,7.6082-9.1477,2.33-2.3149,5.2528-4.0451,7.97-5.9541a25.6349,25.6349,0,0,1,3.96-2.2973A34.5415,34.5415,0,0,1,39.2341,5.6207Z" fill="#489324"/><path d="M16.5325,15.4687l-.7484.8116Z" fill="#28461c"/><path d="M78.9028,47.6562c-1.6087.3505-3.2036.8-4.8295,1.028-2.3906.3348-4.8034.5111-7.2067.7549l-2.5636.3995q-.1958.002-.3915.0042a10.3149,10.3149,0,0,0-2.7753.4881c-.7021.33-1.7619,1.3546-1.6366,1.7138a6.421,6.421,0,0,0,1.9682,2.791,4.2068,4.2068,0,0,0,2.769.8595c3.4534-.3522,5.93,1.5794,8.3887,3.43A8.9762,8.9762,0,0,1,75.49,62.5886a1.7084,1.7084,0,0,1-1.824,2.2788c-.2712-.0139-.5425.3284-.84.4019-.9865.2441-2.1222.8562-2.9539.5811-3.0446-1.0069-5.966-2.3788-8.9792-3.49-2.484-.9164-5.112-1.4738-7.5341-2.52-4.2675-1.8424-8.7278-1.7062-13.1983-1.788-.408-.0074-.84-.4579-1.18-.7859-.0607-.0584.3222-.5115.4172-.8089.41-1.2817,1.3857-2.801,1.0065-3.796-.3644-.9562-2.0728-1.6864-3.3148-1.9677-3.5328-.8-7.1962-1.0749-10.6792-2.0279a39.3408,39.3408,0,0,1-8.3076-3.5044c-.9432-.5137-1.5271-2.0416-1.87-3.224a19.3693,19.3693,0,0,1-1.1539-6.2c.158-2.9306.2273-5.9426,2.7592-8.3438,2.7529-2.6109,5.5328-5.2345,7.0239-9.021.6839-1.7368,2.7352-2.9933,4.2975-4.3124a46.48,46.48,0,0,1,7.0649-5.4546c2.595-1.44,5.5844-2.1813,8.4214-3.17,4.51-1.5721,9.1553-1.3275,13.6973-.4417C60.4,5.3946,62.2589,6.82,64.2,7.7959c2.7812,1.399,5.5172,2.8966,8.3523,4.1752,1.0232.4615,2.4953.0841,3.3759.67a38.017,38.017,0,0,1,3.8922,3.64,9.0927,9.0927,0,0,0,2.8681,2.1141c2.8748.9349,3.5271,3.619,4.85,5.739a19.1913,19.1913,0,0,1,1.508,3.9677,2.0711,2.0711,0,0,1-.0765.8079,40.8657,40.8657,0,0,0-1.8231-4.4711c-1.1136-2.0445-2.16-4.3456-4.9644-4.51-1.9014-.1116-2.8872-1.2274-3.8762-2.68-1.12-1.6458-2.0324-3.7257-4.6871-3.4835a4.5059,4.5059,0,0,1-2.4331-.5029c-1.2742-.6955-2.3762-1.7006-3.6317-2.4374C65.895,9.8514,63.9083,9.293,62.51,8.0522a12.095,12.095,0,0,0-8.1087-2.916,32.6208,32.6208,0,0,0-8.8618.9791,30.4534,30.4534,0,0,0-8.761,3.6515c-2.2457,1.4584-3.9024,3.86-5.7185,5.9336-1.9842,2.2652-4.2668,4.2974-4.02,7.8926.072,1.0479-1.567,2.2792-2.5391,3.3164-1.2445,1.3277-2.661,2.4955-3.8871,3.8383a3.1808,3.1808,0,0,0-.467,1.7446c-.1981,2.113-.3972,4.2294-.475,6.3489a10.5994,10.5994,0,0,0,.2765,3.5876c1.3115,4.0389,5.1265,4.9219,8.4855,5.918,3.3115.982,6.8943,1.01,10.2938,1.7515,1.5738.3433,3.3012,1.0092,3.6655,3.0718a2.6551,2.6551,0,0,0,3.1186,2.4538c1.7661-.0887,3.5445.0915,5.3147.0446.4448-.0118.8807-.4367,1.3169-.6786a13.7094,13.7094,0,0,0,1.7915-1.0378,3.404,3.404,0,0,0,.6864-1.08c.18-.3244.2579-.8917.5006-.9673,3.5483-1.1057,6.6769-3.3435,10.6237-3.4543,2.6883-.0754,5.3391-1.0576,8.0373-1.317a11.4281,11.4281,0,0,0,7.959-4.2248c1.1364-1.3474,2.23-2.7389,3.24-4.1831,1.5789-2.2592,4.1558-3.961,4.114-7.1493-.01-.7569-.08-1.5131-.123-2.27.1654,1.31.7308,2.7267.4143,3.9073a78.7341,78.7341,0,0,1-2.7854,7.5366l-.0013.0013-.5882.79-.5976.9849-3.5476,2.9621-.0015.0013Z" fill="#61ae31"/><path d="M88.9727,29.3067c.0426.7565.113,1.5127.123,2.27.0418,3.1883-2.5351,4.89-4.114,7.1493-1.0093,1.4442-2.1033,2.8357-3.24,4.1831a11.4281,11.4281,0,0,1-7.959,4.2248c-2.6982.2594-5.349,1.2416-8.0373,1.317-3.9468.1108-7.0754,2.3486-10.6237,3.4543-.2427.0756-.3205.6429-.5006.9673a3.404,3.404,0,0,1-.6864,1.08A13.7094,13.7094,0,0,1,52.1435,54.99c-.4362.2419-.8721.6668-1.3169.6786-1.77.0469-3.5486-.1333-5.3147-.0446A2.6551,2.6551,0,0,1,42.3933,53.17c-.3643-2.0626-2.0917-2.7285-3.6655-3.0718-3.4-.7414-6.9823-.77-10.2938-1.7515-3.359-.9961-7.174-1.8791-8.4855-5.918a10.5994,10.5994,0,0,1-.2765-3.5876c.0778-2.12.2769-4.2359.475-6.3489a3.1808,3.1808,0,0,1,.467-1.7446c1.2261-1.3428,2.6426-2.5106,3.8871-3.8383.9721-1.0372,2.6111-2.2685,2.5391-3.3164-.247-3.5952,2.0356-5.6274,4.02-7.8926,1.8161-2.0733,3.4728-4.4752,5.7185-5.9336A30.4534,30.4534,0,0,1,45.54,6.1153a32.6208,32.6208,0,0,1,8.8618-.9791A12.095,12.095,0,0,1,62.51,8.0522c1.3983,1.2408,3.385,1.7992,5.0437,2.7726,1.2555.7368,2.3575,1.7419,3.6317,2.4374a4.5059,4.5059,0,0,0,2.4331.5029c2.6547-.2422,3.5668,1.8377,4.6871,3.4835.989,1.4529,1.9748,2.5687,3.8762,2.68,2.8045.1646,3.8508,2.4657,4.9644,4.51A40.8657,40.8657,0,0,1,88.9693,28.91ZM72.9922,46.1581l.3578.5616a46.3115,46.3115,0,0,0,5.9409-4.01c2.1945-2.0055,3.808-4.6584,6.0451-6.6028,4.3833-3.81,2.6744-9.0844.1033-12.0987-.6277-.7359-2.1191-1.4853-2.8646-1.2259-2.0162.7016-5.29-.2433-6.429-2.0485-1.1067-1.7546-1.4743-4.4308-4.3852-4.3513-2.04.0558-3.2538-1.0376-4.2-2.6505a3.001,3.001,0,0,0-.8162-1.0483C64.4852,11.2463,62.35,9.365,59.8729,8.5823A33.9789,33.9789,0,0,0,49.3894,6.8957c-2.8183.0355-5.6755,1.2246-8.4074,2.2032a9.558,9.558,0,0,0-4.1808,2.6639,20.8351,20.8351,0,0,0-3.1107,5.8926,21.6825,21.6825,0,0,0-1.1259,5.9128c-.1482,2.2974.1118,4.6191.1445,6.9309.015,1.0576.2757,2.34-.2089,3.1334-1.43,2.34-3.2552,4.4352-4.7622,6.7335-.68,1.0366-1.5982,2.5252-1.3036,3.4608a5.005,5.005,0,0,0,4.063,3.4554c3.4032.5761,6.9907.72,10.1428,1.9569,3.9394,1.5462,7.7782.4283,11.6349.5829,2.3171.0929,4.6661-.9347,7.02-1.35,2.8894-.51,5.8024-.8834,8.6982-1.3588C69.6667,46.8386,71.3263,46.4793,72.9922,46.1581Z" fill="#7cc540"/><path d="M81.8669,45.4888l3.5476-2.9621Z" fill="#549930"/><path d="M78.9028,47.6562,81.8654,45.49Z" fill="#549930"/><path d="M64.303,49.8386l2.5636-.3995Z" fill="#549930"/><path d="M86.0121,41.5418l.5882-.79Z" fill="#549930"/><path d="M72.9922,46.1581c-1.6659.3212-3.3255.6805-4.9989.9553-2.8958.4754-5.8088.8492-8.6982,1.3588-2.3539.4151-4.7029,1.4427-7.02,1.35-3.8567-.1546-7.6955.9633-11.6349-.5829-3.1521-1.2371-6.74-1.3808-10.1428-1.9569a5.005,5.005,0,0,1-4.063-3.4554c-.2946-.9356.6239-2.4242,1.3036-3.4608,1.507-2.2983,3.3326-4.3932,4.7622-6.7335.4846-.7933.2239-2.0758.2089-3.1334-.0327-2.3118-.2927-4.6335-.1445-6.9309a21.6825,21.6825,0,0,1,1.1259-5.9128,20.8351,20.8351,0,0,1,3.1107-5.8926A9.558,9.558,0,0,1,40.982,9.0989c2.7319-.9786,5.5891-2.1677,8.4074-2.2032A33.9789,33.9789,0,0,1,59.8729,8.5823c2.4769.7827,4.6123,2.664,6.8711,4.1011a3.001,3.001,0,0,1,.8162,1.0483c.9465,1.6129,2.16,2.7063,4.2,2.6505,2.9109-.0795,3.2785,2.5967,4.3852,4.3513,1.1386,1.8052,4.4128,2.75,6.429,2.0485.7455-.2594,2.2369.49,2.8646,1.2259,2.5711,3.0143,4.28,8.289-.1033,12.0987-2.2371,1.9444-3.8506,4.5973-6.0451,6.6028A46.3115,46.3115,0,0,1,73.35,46.72Zm3.1783-18.3464c-2.2755-.2229-4.3915.4242-5.0266-1.9316-.315-1.1689.0288-2.5037-.1929-3.7145a2.233,2.233,0,0,0-1.3-1.49c-1.5766-.4148-3.0659-.7823-3.48-2.6468a9.7331,9.7331,0,0,0-.3361-1.868c-1.6517-3.6609-5.1113-5.3583-8.51-6.2514a24.9711,24.9711,0,0,0-12.2107.2918c-4.0678.986-6.91,3.0416-8.424,6.979a13.3131,13.3131,0,0,0-.2876,9.0778,90.9338,90.9338,0,0,0,2.8423,9.0037c1.2576,2.89,1.0772,5.2207-1.19,7.4336-.5178.5053-1.0564,1.85-.8149,2.1206.9426,1.0568,2.08,2.2922,3.3584,2.6142,1.9058.48,3.9927.2287,6.0013.3162,1.4777.0644,2.9527.19,4.43.2568a24.8123,24.8123,0,0,0,4.0908.0815c2.3564-.2889,4.687-.7929,7.0251-1.2253,2.08-.3847,4.171-.7312,6.2269-1.2215a11.512,11.512,0,0,0,2.69-1.1561,27.39,27.39,0,0,0,4.366-2.5557c2.8855-2.3333,5.5264-4.9732,8.4506-7.2528,1.7343-1.352,2.8291-3.0344,1.7693-4.9826a5.1255,5.1255,0,0,0-3.4735-2.229A30.4229,30.4229,0,0,0,76.1705,27.8117Z" fill="#9bd85c"/><path d="M76.1705,27.8117a30.4229,30.4229,0,0,1,6.0045-.35,5.1255,5.1255,0,0,1,3.4735,2.229c1.06,1.9482-.035,3.6306-1.7693,4.9826-2.9242,2.28-5.5651,4.9195-8.4506,7.2528a27.39,27.39,0,0,1-4.366,2.5557,11.512,11.512,0,0,1-2.69,1.1561c-2.0559.49-4.1466.8368-6.2269,1.2215-2.3381.4324-4.6687.9364-7.0251,1.2253a24.8123,24.8123,0,0,1-4.0908-.0815c-1.4776-.0666-2.9526-.1924-4.43-.2568-2.0086-.0875-4.0955.1638-6.0013-.3162-1.2783-.322-2.4158-1.5574-3.3584-2.6142-.2415-.2709.2971-1.6153.8149-2.1206,2.2677-2.2129,2.4481-4.5432,1.19-7.4336a90.9338,90.9338,0,0,1-2.8423-9.0037,13.3131,13.3131,0,0,1,.2876-9.0778c1.5143-3.9374,4.3562-5.993,8.424-6.979A24.9711,24.9711,0,0,1,57.3254,9.91c3.3987.8931,6.8583,2.59,8.51,6.2514a9.7331,9.7331,0,0,1,.3361,1.868c.4137,1.8645,1.903,2.232,3.48,2.6468a2.233,2.233,0,0,1,1.3,1.49c.2217,1.2108-.1221,2.5456.1929,3.7145C71.779,28.2359,73.895,27.5888,76.1705,27.8117ZM60.1565,20.82c-.12-.0941-.3093-.1656-.3481-.2857-.3452-1.069-.598-2.1732-1.0171-3.2107-.2192-.5427-1.0249-.967-1.0341-1.4548a3.3255,3.3255,0,0,0-2.6171-3.231,14.2875,14.2875,0,0,0-4.3262-1.014,13.6523,13.6523,0,0,0-4.2347.9066,11.295,11.295,0,0,0-3.8275,1.711,7.9,7.9,0,0,0-2.3728,3.5245c-.7124,2.3145-1.8042,4.7192-.0665,7.1649,1.4437,2.0318,2.5521,4.3187,4.1222,6.2361.7285.89,2.1914,1.1924,3.3479,1.7007.1627.0715.4756-.2061.7221-.315a1.5064,1.5064,0,0,1,.49-.1852c2.1035-.0931,4.3064.1772,6.2755-.3807,1.2231-.3465,2.2177-1.8489,3.0794-3.0076a7.0781,7.0781,0,0,0,1.2945-3.0531,12.2011,12.2011,0,0,0-.3808-3.0417c-.0147-.1247.236-.2807.3637-.4221l.2177.39c.0383-.1852.0862-.369.1132-.5558.0709-.4913.1328-.9839.1982-1.4761l.0426-.0776Z" fill="#b3e572"/><path d="M60.1565,20.82c-.0654.4922-.1273.9848-.1982,1.4761-.027.1868-.0749.3706-.1132.5558l-.2177-.39c-.1277.1414-.3784.2974-.3637.4221a12.2011,12.2011,0,0,1,.3808,3.0417A7.0781,7.0781,0,0,1,58.35,28.9786c-.8617,1.1587-1.8563,2.6611-3.0794,3.0076-1.9691.5579-4.172.2876-6.2755.3807a1.5064,1.5064,0,0,0-.49.1852c-.2465.1089-.5594.3865-.7221.315-1.1565-.5083-2.6194-.8111-3.3479-1.7007-1.57-1.9174-2.6785-4.2043-4.1222-6.2361-1.7377-2.4457-.6459-4.85.0665-7.1649a7.9,7.9,0,0,1,2.3728-3.5245,11.295,11.295,0,0,1,3.8275-1.711,13.6523,13.6523,0,0,1,4.2347-.9066,14.2875,14.2875,0,0,1,4.3262,1.014,3.3255,3.3255,0,0,1,2.6171,3.231c.0092.4878.8149.9121,1.0341,1.4548.4191,1.0375.6719,2.1417,1.0171,3.2107.0388.12.2284.1916.3481.2857ZM39.7772,22.7155l.0769.0278c.0079-.0229.0285-.0589.0212-.066a.21.21,0,0,0-.0744-.03Z" fill="#d0ebaa"/><path d="M60.1565,20.82l.0426-.0775-.0426.0776Z" fill="#d0ebaa"/><path d="M39.7772,22.7155l.0237-.0686a.21.21,0,0,1,.0744.03c.0073.0071-.0133.0431-.0212.066Z" fill="#b3e572"/></g></svg>