<svg id="Layer_2" data-name="Layer 2" xmlns="http://www.w3.org/2000/svg" xmlns:xlink="http://www.w3.org/1999/xlink" width="100" height="100" viewBox="0 0 100 100"><defs><linearGradient id="linear-gradient" x1="49.7189" y1="99.1031" x2="49.7189" y2="1.448" gradientUnits="userSpaceOnUse"><stop offset="0" stop-color="#424b61"/><stop offset="1" stop-color="#6e7ca0"/></linearGradient><linearGradient id="linear-gradient-2" x1="49.3299" y1="84.6405" x2="49.3299" y2="10.0245" xlink:href="#linear-gradient"/></defs><circle cx="49.7189" cy="50.2756" r="48.8275" fill="url(#linear-gradient)"/><path d="M49.7381,95.8269A45.53,45.53,0,0,1,4.1769,52.0094C3.3407,25.0634,24.0884,7.373,43.5483,5.1041,58.7456,3.3322,71.792,7.7458,82.519,18.6305A42.8385,42.8385,0,0,1,94.5853,42.2858c2.5584,15.8427-1.9016,29.485-13.2667,40.802A44.9527,44.9527,0,0,1,49.7381,95.8269Zm-.1363-1.6828c2.5818-.2818,5.179-.4638,7.7424-.8636A41.2233,41.2233,0,0,0,78.85,82.8685,44.56,44.56,0,0,0,92.2349,60.5761a40.0558,40.0558,0,0,0,.3728-19.04c-.7476-3.39-2.2009-6.6187-3.2311-9.9526a29.2578,29.2578,0,0,0-7.4743-12.1226,41.9417,41.9417,0,0,0-14.3447-9.434C61.1417,7.4892,54.6182,5.9651,47.6372,6.53A47.4585,47.4585,0,0,0,30.8931,11.228,40.2818,40.2818,0,0,0,15.8448,23.7422C9.3175,32.5212,6.02,42.3351,6.6514,53.4154a41.11,41.11,0,0,0,3.4525,14.967C14.6592,78.354,21.5875,85.9473,31.8639,90.3A49.393,49.393,0,0,0,49.6018,94.1441Z" fill="#9aa0a9"/><path d="M49.6018,94.1441A49.393,49.393,0,0,1,31.8639,90.3c-10.2764-4.3529-17.2047-11.9462-21.76-21.9178a41.11,41.11,0,0,1-3.4525-14.967c-.6316-11.08,2.6661-20.8942,9.1934-29.6732A40.2818,40.2818,0,0,1,30.8931,11.228,47.4585,47.4585,0,0,1,47.6372,6.53c6.981-.5647,13.5045.9594,19.92,3.4967a41.9417,41.9417,0,0,1,14.3447,9.434,29.2578,29.2578,0,0,1,7.4743,12.1226c1.03,3.3339,2.4835,6.5628,3.2311,9.9526a40.0558,40.0558,0,0,1-.3728,19.04A44.56,44.56,0,0,1,78.85,82.8685a41.2233,41.2233,0,0,1-21.5053,10.412C54.7808,93.68,52.1836,93.8623,49.6018,94.1441ZM91.618,49.6483a37.792,37.792,0,0,0-.39-5.5035c-.8184-3.83-1.9519-7.5922-2.8349-11.41A24.6643,24.6643,0,0,0,82.82,22.2555c-4.2931-5.03-9.8976-8.2782-15.8015-11.0184A37.2284,37.2284,0,0,0,44.6206,8.1876a44.3721,44.3721,0,0,0-20.7867,9.5056,41.6769,41.6769,0,0,0-12.9643,18.6A45.1256,45.1256,0,0,0,8.7,56.3451a41.2991,41.2991,0,0,0,6.638,18.2931,35.5908,35.5908,0,0,0,5.5657,6.4051,40.67,40.67,0,0,0,14.8587,8.9154,41.2122,41.2122,0,0,0,22.464,1.3758A41.4379,41.4379,0,0,0,84.2816,73.9793,40.0267,40.0267,0,0,0,91.618,49.6483Z" fill="#aaafb6"/><path d="M91.618,49.6483a40.0267,40.0267,0,0,1-7.3364,24.331A41.4379,41.4379,0,0,1,58.2263,91.3345a41.2122,41.2122,0,0,1-22.464-1.3758,40.67,40.67,0,0,1-14.8587-8.9154,35.5908,35.5908,0,0,1-5.5657-6.4051A41.2991,41.2991,0,0,1,8.7,56.3451a45.1256,45.1256,0,0,1,2.17-20.0517,41.6769,41.6769,0,0,1,12.9643-18.6A44.3721,44.3721,0,0,1,44.6206,8.1876a37.2284,37.2284,0,0,1,22.3983,3.05c5.9039,2.74,11.5084,5.9888,15.8015,11.0184a24.6643,24.6643,0,0,1,5.5723,10.4791c.883,3.818,2.0165,7.58,2.8349,11.41A37.792,37.792,0,0,1,91.618,49.6483ZM49.2943,90.6007c.6606,0,1.3219.02,1.9815-.0057.6553-.0257,1.3085-.1,1.963-.1494a40.5684,40.5684,0,0,0,17.0177-5.4178A38.57,38.57,0,0,0,83.1586,73.02a38.0547,38.0547,0,0,0,6.8551-22.7331c-.09-4.3585-1.1039-8.69-1.414-13.0538a23.64,23.64,0,0,0-7-15.0487,46.6073,46.6073,0,0,0-13.5012-9.55,38.22,38.22,0,0,0-29.3148-2.014A42.8515,42.8515,0,0,0,19.663,23.1953,33.92,33.92,0,0,0,11.8184,36.91,50.1584,50.1584,0,0,0,9.85,51.4385,46.6,46.6,0,0,0,12.362,66.06a34.4657,34.4657,0,0,0,9.1606,14.0586A35.6611,35.6611,0,0,0,31.0787,86.43,42.4136,42.4136,0,0,0,49.2943,90.6007Z" fill="#b9bcc3"/><path d="M49.2943,90.6007A42.4136,42.4136,0,0,1,31.0787,86.43a35.6611,35.6611,0,0,1-9.5561-6.3113A34.4657,34.4657,0,0,1,12.362,66.06,46.6,46.6,0,0,1,9.85,51.4385,50.1584,50.1584,0,0,1,11.8184,36.91,33.92,33.92,0,0,1,19.663,23.1953,42.8515,42.8515,0,0,1,38.7839,10.6207a38.22,38.22,0,0,1,29.3148,2.014A46.6073,46.6073,0,0,1,81.6,22.1843a23.64,23.64,0,0,1,7,15.0487c.31,4.364,1.3243,8.6953,1.414,13.0538A38.0547,38.0547,0,0,1,83.1586,73.02,38.57,38.57,0,0,1,70.2565,85.0278a40.5684,40.5684,0,0,1-17.0177,5.4178c-.6545.0489-1.3077.1237-1.963.1494C50.6162,90.621,49.9549,90.6007,49.2943,90.6007Zm-37.9212-40.39c.63,4.4638.885,9.02,1.965,13.3725,2.4791,9.99,9.0735,16.78,18.12,21.1779a35.01,35.01,0,0,0,18.6167,3.8608,60.6989,60.6989,0,0,0,12.6966-2.4138c6.0976-1.9362,11.6688-5.0637,15.5135-10.4225A92.1648,92.1648,0,0,0,84.72,65.5341c2.66-4.98,3.2036-10.537,3.2482-16.0644.034-4.22-.5446-8.4417-.7121-12.6681a18.8415,18.8415,0,0,0-5.44-12.465A45.1574,45.1574,0,0,0,68.3624,14.3035C61.7332,11.1783,55.033,9.2522,47.6544,9.877a37.4492,37.4492,0,0,0-15.9727,5.23,43.7625,43.7625,0,0,0-11.9454,9.9749,39.0544,39.0544,0,0,0-5.1545,7.7727C12,38.2918,11.7513,44.2291,11.3731,50.2112Z" fill="#c4c7cb"/><path d="M11.3731,50.2112c.3782-5.9821.6269-11.9194,3.2087-17.3568a39.0544,39.0544,0,0,1,5.1545-7.7727,43.7625,43.7625,0,0,1,11.9454-9.9749,37.4492,37.4492,0,0,1,15.9727-5.23c7.3786-.6248,14.0788,1.3013,20.708,4.4265A45.1574,45.1574,0,0,1,81.8152,24.3366a18.8415,18.8415,0,0,1,5.44,12.465c.1675,4.2264.7461,8.4479.7121,12.6681-.0446,5.5274-.5881,11.0841-3.2482,16.0644a92.1648,92.1648,0,0,1-6.4348,10.252c-3.8447,5.3588-9.4159,8.4863-15.5135,10.4225a60.6989,60.6989,0,0,1-12.6966,2.4138,35.01,35.01,0,0,1-18.6167-3.8608c-9.0463-4.3984-15.6407-11.1877-18.12-21.1779C12.2581,59.2317,12.0029,54.675,11.3731,50.2112ZM77.5638,21.6337l-.1583,0A22.077,22.077,0,0,0,73.94,18.2869c-5.6128-3.4674-11.417-6.5047-18.0947-7.488a34.2139,34.2139,0,0,0-15.88,1.2788C31.83,14.7493,25.3336,19.7769,19.7761,26.199c-6.0535,6.9952-7.4159,15.07-6.0126,23.92a49.2657,49.2657,0,0,1,.7684,8.2781,23.7313,23.7313,0,0,0,2.198,10.838c2.7645,5.7113,7.6112,9.479,12.9381,12.414,3.263,1.7979,7.1093,2.5614,10.728,3.6778a16.729,16.729,0,0,0,4.6112.8769,37.9238,37.9238,0,0,0,8.5031-.4424A111.86,111.86,0,0,0,67.6382,81.73c2.3328-.8414,4.3842-2.5645,6.4363-4.0622,4.4085-3.2174,6.9919-7.7351,8.693-12.81.548-1.6346.9913-3.3069,1.4209-4.9777a21.7608,21.7608,0,0,0,.5689-3.04c.1882-1.72.223-3.4588.4436-5.174.1441-1.1208.6419-2.202.7383-3.3219.286-3.3229.4435-6.6567.6668-9.9851a15.2478,15.2478,0,0,0-1.4419-8.1126,23.8818,23.8818,0,0,0-2.0511-2.9057l-.9512-1.2684Z" fill="#d1d2d5"/><path d="M83.113,27.3408a23.8818,23.8818,0,0,1,2.0511,2.9057,15.2478,15.2478,0,0,1,1.4419,8.1126c-.2233,3.3284-.3808,6.6622-.6668,9.9851-.0964,1.12-.5942,2.2011-.7383,3.3219-.2206,1.7152-.2554,3.4536-.4436,5.174a21.7608,21.7608,0,0,1-.5689,3.04c-.43,1.6708-.8729,3.3431-1.4209,4.9777-1.7011,5.0746-4.2845,9.5923-8.693,12.81-2.0521,1.4977-4.1035,3.2208-6.4363,4.0622A111.86,111.86,0,0,1,53.51,85.7617a37.9238,37.9238,0,0,1-8.5031.4424,16.729,16.729,0,0,1-4.6112-.8769c-3.6187-1.1164-7.465-1.88-10.728-3.6778-5.3269-2.935-10.1736-6.7027-12.9381-12.414a23.7313,23.7313,0,0,1-2.198-10.838,49.2657,49.2657,0,0,0-.7684-8.2781c-1.4033-8.8508-.0409-16.9251,6.0126-23.92,5.5575-6.4221,12.0534-11.45,20.189-14.1213a34.2139,34.2139,0,0,1,15.88-1.2788c6.6777.9833,12.4819,4.0206,18.0947,7.488a22.077,22.077,0,0,1,3.4655,3.3464l-1.2687-.7921-.4756-.3173L73.917,18.9388l-.1583,0-.6343-.6338-.1583,0c-.1848-.1987-.3334-.4662-.56-.5852A53.0368,53.0368,0,0,0,67.27,15.12c-3.4545-1.3579-6.9789-2.5379-10.4744-3.7916h-.3168l-.7926-.0006-.4755,0-.9516-.3162h-.3169L52.04,11.011H50.6128l-.3173-.1579-.9512.1581-1.9025.1584-.4755,0-.7929.1583-.4754,0-.4758.1582-.3169,0c-.1952-.0467-.4195-.181-.5813-.1272-2.8609.95-5.8636,1.6224-8.5373,2.954a43.3709,43.3709,0,0,0-13.7923,10.65,42.0866,42.0866,0,0,0-3.529,4.1382,24.3632,24.3632,0,0,0-4.3208,15.1922c.3064,4.5168,1.3635,5.6477,5.3476,6.0536,4.3889.4471,8.7635,1.0361,13.1428,1.5747.1785.0219.46.1351.485.2513a.635.635,0,0,1-.212.5393,19.0881,19.0881,0,0,1-2.6954,1.7293c-1.7333.8-3.5637,1.3893-5.3,2.1831-1.5951.7291-3.0433,1.8617-4.6938,2.3677a4.9908,4.9908,0,0,0-3.609,5.5558,14.796,14.796,0,0,0,4.1827,8.3827A27.8,27.8,0,0,0,24.2261,76.12,13.2289,13.2289,0,0,0,27.09,77.4069c1.3041.5472,2.6245,1.057,3.9169,1.63.4029.1786.7113.6757,1.1092.74a24.5382,24.5382,0,0,0,3.2471.2486,1.7657,1.7657,0,0,0,.9574-.3393,15.222,15.222,0,0,1,2.1664-1.5576,17.009,17.009,0,0,1,2.9562-.7627c.8422-.2006,1.6927-.3685,2.5292-.59.8813-.2334,1.7413-.5541,2.63-.75a1.8788,1.8788,0,0,1,.96.237c.5593.222,1.1243.7225,1.6471.6743a9.2934,9.2934,0,0,0,2.2468-.8083c.2058-.0777.4232-.1247.6352-.1857a2.7685,2.7685,0,0,1-.0519.7417c-.2255.642-.2779.978.6412.8154.3152-.0558.7028.5686,1.1165.7352a20.0831,20.0831,0,0,0,2.0568.6029c-.0235-1.1615.6532-.6568,1.3225-.718,1.6119-.1475,3.1892-.6436,4.7932-.9278a4.2111,4.2111,0,0,1,1.5294.1095c.7912.1619,1.5588.4442,2.3524.586.3474.0621.7526-.2,1.1005-.1387,2.7487.4852,5.0589-.6857,7.1926-2.0962,2.94-1.9437,4.7023-4.8882,6.12-8.0492a8.5064,8.5064,0,0,0-.2887-7.81,19.6308,19.6308,0,0,0-2.3679-3.1806,9.6569,9.6569,0,0,0-5.6631-3.6147c-1.53-.2937-3.0393-.7075-4.546-1.1112-.23-.0615-.3957-.3606-.5911-.55.2295-.1811.4474-.5007.69-.5209,1.7263-.1437,3.4628-.1738,5.1864-.3405,2.5452-.2461,5.1313-.36,7.3476-1.9228a34.0732,34.0732,0,0,0,3.2146-2.1276,6.022,6.022,0,0,0,1.8686-2.63,37.8721,37.8721,0,0,0,.9685-6.0062,12.7032,12.7032,0,0,0-.277-2.68v-.317l-1.1093-4.2809-.0009-.3167-.6332-.9516-.6348-1.11-.3165-.3172-.0006-.1584v-.317Z" fill="#d5d5d8"/><path d="M77.5638,21.6337l4.598,4.4387-.0009.0008h-.3167l-1.5855-1.5857a10.8721,10.8721,0,0,0-.7146-.8988C78.8972,22.9241,78.2255,22.2838,77.5638,21.6337Z" fill="#d5d5d8"/><path d="M77.5638,21.6337c.6617.65,1.3334,1.29,1.98,1.9549a10.8721,10.8721,0,0,1,.7146.8988l-4.1219-3.6462,1.2687.7921Z" fill="#d8d8db"/><path d="M82.1618,26.0724l.9512,1.2684-.0009.0008-.3171-.1585-.1585-.1587-.3166-.3172-.159-.317v-.317Z" fill="#d5d5d8"/><path d="M82.6365,27.0244l.1585.1587.3171.4755.0006.1584.3165.3172.6348,1.11.6332.9516.0009.3167,1.1093,4.2809v.317c-.0535.9185-.1485,1.8367-.1537,2.7555C85.6211,43.6662,81.906,46.71,77.13,48.54c-2.3658.9066-5.1229.7756-7.6954,1.1642-2.54.3835-5.0726.815-7.6,1.272-.2634.0476-.47.41-.7026.6272.1891.157.3547.3964.5711.4584,2.3819.6829,4.7657,1.3608,7.1607,1.9959a14.8931,14.8931,0,0,1,9.15,7.11c2.1041,3.5358-.2672,9.0727-4.0272,10.577-1.9557.7825-3.3739.3616-5.1007-.5383a19.7693,19.7693,0,0,0-6.0482-2.0854c-2.3886-.36-4.3534-1.0625-5.6909-3.14-.9409-1.4613-2.4768-.8672-3.7528-.9633-1.2281-.0924-2.4831.264-3.7276.2752-1.3729.0124-2.7465-.1731-4.1216-.2175a24.8037,24.8037,0,0,0-3.6475.0438,2.8028,2.8028,0,0,0-1.4422.936c-.6074.633-1.0258,1.4548-1.66,2.0535a24.0366,24.0366,0,0,1-3.37,2.79,8.3079,8.3079,0,0,1-3.321,1.3806,16.17,16.17,0,0,1-3.9142-.39c-1.55-.2023-3.2433-.1148-4.6034-.7414a11.2389,11.2389,0,0,1-3.3851-3.0082c-1.2657-1.4546-1.284-3.0751-.3118-4.1321a21.6575,21.6575,0,0,1,2.214-2.4136A46.7511,46.7511,0,0,1,28.1115,57.21c2.563-1.4428,5.3608-2.4657,8.036-3.7155.3339-.156.54-.5859.8054-.8889-.27-.2236-.5094-.5821-.8134-.649-2.0757-.4571-4.1651-.8527-6.25-1.2686-3.2918-.6566-6.62-1.1754-9.8585-2.033-1.4583-.3862-3.2491-1.1176-3.9952-2.2708-1.7563-2.7145-1.283-5.9663-.6141-8.9228a24.013,24.013,0,0,1,6.13-11.0477c4.3019-4.64,8.7558-9.0947,14.5512-11.8113a90.3192,90.3192,0,0,1,8.8027-3.1159l.3169,0,.4758-.1582.4754,0,.7929-.1583.4755,0,1.9025-.1584.9512-.1581.3173.1579H52.04l1.9023.0006h.3169l.9516.3162.4755,0,.7926.0006h.3168a2.0607,2.0607,0,0,0,.4628.31c2.2466.7364,4.5721,1.2882,6.7294,2.2274,3.0574,1.331,5.9917,2.945,8.9787,4.4381l.1583,0,.6343.6338.1583,0,1.7442,1.5851.4756.3173,4.1219,3.6462,1.5855,1.5857.3167.3171.159.317Zm2.67,8.1249a34.5684,34.5684,0,0,0-1.0358-3.6973C82.4642,26.9226,78.35,24.47,75.0267,21.2969c-2.4106-2.3014-5.486-3.45-8.26-5.1287-7.4228-4.4921-15.327-5.26-23.5743-3.4167-8.0935,1.8092-13.9343,7.1063-19.2974,13.0375-1.1942,1.3208-2.4485,2.5931-3.5682,3.9743a17.2693,17.2693,0,0,0-3.5328,10.7353c-.044,1.6688.4814,3.9566,1.6266,4.9387,3.36,2.8816,7.7835,3.4479,12.0114,4.2473,2.8333.5358,5.705.8823,8.5174,1.504a2.3476,2.3476,0,0,1,1.42,1.6763,3.0788,3.0788,0,0,1-.8939,2.3105A9.8529,9.8529,0,0,1,36.7966,56.22c-.2916.1194-.73.4524-.709.6447.0438.3993.3305,1.086.5518,1.1a15.3044,15.3044,0,0,0,3.7481-.0728c3.4009-.6421,6.6016.1045,9.8006,1.0961.5775.179,1.2328.12,1.7985.322,1.3946.4972,2.7423,1.1265,4.1379,1.6209,2.0368.7216,4.1065,1.35,6.1464,2.0635a9.0276,9.0276,0,0,1,1.9947.9544c.9328.6171,1.7456,1.4238,2.7033,1.9916a2.8067,2.8067,0,0,0,1.9588.475c1.3382-.438,2.5509-1.2436,3.8671-1.7687,1.4061-.561,2.2671-2.7861,1.1961-3.7893a37.7663,37.7663,0,0,0-5.403-4.3182,11.4308,11.4308,0,0,0-4.5186-1.6876c-1.5192-.1994-2.959-.2593-3.9942-1.5118-.4221-.5107-1.0944-1.2923-.9471-1.6881a2.7013,2.7013,0,0,1,1.6446-1.5557c3.1649-.6124,6.3592-1.1016,9.5607-1.4876,3.07-.37,6.0166-.8156,8.6844-2.676A14.2177,14.2177,0,0,0,85.3067,35.1493Z" fill="#dddde0"/><path d="M44.9053,11.4867a90.3192,90.3192,0,0,0-8.8027,3.1159c-5.7954,2.7166-10.2493,7.1715-14.5512,11.8113a24.013,24.013,0,0,0-6.13,11.0477c-.6689,2.9565-1.1422,6.2083.6141,8.9228.7461,1.1532,2.5369,1.8846,3.9952,2.2708,3.2385.8576,6.5667,1.3764,9.8585,2.033,2.0848.4159,4.1742.8115,6.25,1.2686.304.0669.5438.4254.8134.649-.2654.303-.4715.7329-.8054.8889-2.6752,1.25-5.473,2.2727-8.036,3.7155a46.7511,46.7511,0,0,0-6.0068,4.3835,21.6575,21.6575,0,0,0-2.214,2.4136c-.9722,1.057-.9539,2.6775.3118,4.1321a11.2389,11.2389,0,0,0,3.3851,3.0082c1.36.6266,3.0531.5391,4.6034.7414a16.17,16.17,0,0,0,3.9142.39,8.3079,8.3079,0,0,0,3.321-1.3806,24.0366,24.0366,0,0,0,3.37-2.79c.6337-.5987,1.0521-1.42,1.66-2.0535a2.8028,2.8028,0,0,1,1.4422-.936,24.8037,24.8037,0,0,1,3.6475-.0438c1.3751.0444,2.7487.23,4.1216.2175,1.2445-.0112,2.5-.3676,3.7276-.2752,1.276.0961,2.8119-.498,3.7528.9633,1.3375,2.0772,3.3023,2.7793,5.6909,3.14a19.7693,19.7693,0,0,1,6.0482,2.0854c1.7268.9,3.145,1.3208,5.1007.5383,3.76-1.5043,6.1313-7.0412,4.0272-10.577a14.8931,14.8931,0,0,0-9.15-7.11c-2.395-.6351-4.7788-1.313-7.1607-1.9959-.2164-.062-.382-.3014-.5711-.4584.2328-.2167.4392-.58.7026-.6272,2.5274-.457,5.06-.8885,7.6-1.272,2.5725-.3886,5.33-.2576,7.6954-1.1642,4.7758-1.83,8.4909-4.8736,8.5235-10.6742.0052-.9188.1-1.837.1537-2.7555a12.7032,12.7032,0,0,1,.277,2.68,37.8721,37.8721,0,0,1-.9685,6.0062,6.022,6.022,0,0,1-1.8686,2.63,34.0732,34.0732,0,0,1-3.2146,2.1276c-2.2163,1.5629-4.8024,1.6767-7.3476,1.9228-1.7236.1667-3.46.1968-5.1864.3405-.2429.02-.4608.34-.69.5209.1954.1891.3615.4882.5911.55,1.5067.4037,3.0155.8175,4.546,1.1112a9.6569,9.6569,0,0,1,5.6631,3.6147,19.6308,19.6308,0,0,1,2.3679,3.1806,8.5064,8.5064,0,0,1,.2887,7.81c-1.4181,3.161-3.18,6.1055-6.12,8.0492-2.1337,1.41-4.4439,2.5814-7.1926,2.0962-.3479-.0614-.7531.2008-1.1005.1387-.7936-.1418-1.5612-.4241-2.3524-.586a4.2111,4.2111,0,0,0-1.5294-.1095c-1.604.2842-3.1813.78-4.7932.9278-.6693.0612-1.346-.4435-1.3225.718a20.0831,20.0831,0,0,1-2.0568-.6029c-.4137-.1666-.8013-.791-1.1165-.7352-.9191.1626-.8667-.1734-.6412-.8154a2.7685,2.7685,0,0,0,.0519-.7417c-.212.061-.4294.108-.6352.1857a9.2934,9.2934,0,0,1-2.2468.8083c-.5228.0482-1.0878-.4523-1.6471-.6743a1.8788,1.8788,0,0,0-.96-.237c-.8885.1955-1.7485.5162-2.63.75-.8365.2216-1.687.3895-2.5292.59a17.009,17.009,0,0,0-2.9562.7627,15.222,15.222,0,0,0-2.1664,1.5576,1.7657,1.7657,0,0,1-.9574.3393,24.5382,24.5382,0,0,1-3.2471-.2486c-.3979-.0641-.7063-.5612-1.1092-.74-1.2924-.5731-2.6128-1.0829-3.9169-1.63A13.2289,13.2289,0,0,1,24.2261,76.12a27.8,27.8,0,0,1-3.4339-3.1887A14.796,14.796,0,0,1,16.61,64.5484a4.9908,4.9908,0,0,1,3.609-5.5558c1.6505-.506,3.0987-1.6386,4.6938-2.3677,1.7366-.7938,3.567-1.3829,5.3-2.1831a19.0881,19.0881,0,0,0,2.6954-1.7293.635.635,0,0,0,.212-.5393c-.0254-.1162-.3065-.2294-.485-.2513-4.3793-.5386-8.7539-1.1276-13.1428-1.5747-3.9841-.4059-5.0412-1.5368-5.3476-6.0536a24.3632,24.3632,0,0,1,4.3208-15.1922,42.0866,42.0866,0,0,1,3.529-4.1382,43.3709,43.3709,0,0,1,13.7923-10.65c2.6737-1.3316,5.6764-2.0042,8.5373-2.954C44.4858,11.3057,44.71,11.44,44.9053,11.4867Z" fill="#d8d8db"/><path d="M72.9661,18.3042c-2.987-1.4931-5.9213-3.1071-8.9787-4.4381-2.1573-.9392-4.4828-1.491-6.7294-2.2274a2.0607,2.0607,0,0,1-.4628-.31c3.4955,1.2537,7.02,2.4337,10.4744,3.7916a53.0368,53.0368,0,0,1,5.1365,2.5986C72.6327,17.838,72.7813,18.1055,72.9661,18.3042Z" fill="#d8d8db"/><path d="M85.8074,34.7931l-1.1093-4.2809Z" fill="#d8d8db"/><path d="M75.6612,20.5239,73.917,18.9388Z" fill="#d8d8db"/><path d="M53.9418,11.0116,52.04,11.011Z" fill="#d8d8db"/><path d="M49.3443,11.0111l-1.9025.1584Z" fill="#d8d8db"/><path d="M55.21,11.3279l-.9516-.3162Z" fill="#d8d8db"/><path d="M84.6972,30.1955l-.6332-.9516Z" fill="#d8d8db"/><path d="M56.4784,11.3287l-.7926-.0006Z" fill="#d8d8db"/><path d="M73.7587,18.9384l-.6343-.6338Z" fill="#d8d8db"/><path d="M46.9663,11.17l-.7929.1583Z" fill="#d8d8db"/><path d="M45.698,11.3283l-.4758.1582Z" fill="#d8d8db"/><path d="M83.1121,27.6586l-.3171-.4755.3171.1585Z" fill="#d8d8db"/><path d="M83.4292,28.1342l-.3165-.3172Z" fill="#d8d8db"/><path d="M50.6128,11.0109l-.3173-.1579Z" fill="#d8d8db"/><path d="M82.1609,26.39l-.3167-.3171h.3167Z" fill="#d8d8db"/><path d="M82.6365,27.0244l-.3166-.3172Z" fill="#d8d8db"/><path d="M85.3067,35.1493a14.2177,14.2177,0,0,1-6.289,10.7828c-2.6678,1.86-5.6145,2.3058-8.6844,2.676-3.2015.386-6.3958.8752-9.5607,1.4876a2.7013,2.7013,0,0,0-1.6446,1.5557c-.1473.3958.525,1.1774.9471,1.6881,1.0352,1.2525,2.475,1.3124,3.9942,1.5118a11.4308,11.4308,0,0,1,4.5186,1.6876,37.7663,37.7663,0,0,1,5.403,4.3182c1.071,1.0032.21,3.2283-1.1961,3.7893-1.3162.5251-2.5289,1.3307-3.8671,1.7687a2.8067,2.8067,0,0,1-1.9588-.475c-.9577-.5678-1.77-1.3745-2.7033-1.9916a9.0276,9.0276,0,0,0-1.9947-.9544c-2.04-.7133-4.11-1.3419-6.1464-2.0635-1.3956-.4944-2.7433-1.1237-4.1379-1.6209-.5657-.2017-1.221-.143-1.7985-.322-3.199-.9916-6.4-1.7382-9.8006-1.0961a15.3044,15.3044,0,0,1-3.7481.0728c-.2213-.0138-.508-.7-.5518-1.1-.0211-.1923.4174-.5253.709-.6447a9.8529,9.8529,0,0,0,2.6791-1.0445,3.0788,3.0788,0,0,0,.8939-2.3105,2.3476,2.3476,0,0,0-1.42-1.6763c-2.8124-.6217-5.6841-.9682-8.5174-1.504-4.2279-.7994-8.6511-1.3657-12.0114-4.2473-1.1452-.9821-1.6706-3.27-1.6266-4.9387a17.2693,17.2693,0,0,1,3.5328-10.7353c1.12-1.3812,2.374-2.6535,3.5682-3.9743,5.3631-5.9312,11.2039-11.2283,19.2974-13.0375C51.44,10.908,59.3442,11.6761,66.767,16.1682c2.7737,1.6785,5.8491,2.8273,8.26,5.1287,3.3236,3.173,7.4375,5.6257,9.2442,10.1551A34.5684,34.5684,0,0,1,85.3067,35.1493Zm-2-.9229c-.1581-2.8212-1.8461-4.781-3.8915-6.3932-2.14-1.6863-4.5245-3.0586-6.6973-4.7063-1.1436-.8672-1.97-2.1516-3.1121-3.022a35.5712,35.5712,0,0,0-3.379-1.8245c-1.0321-.62-1.9195-1.5034-2.9878-2.0359a28.4282,28.4282,0,0,0-19.1376-2.0988,16.3185,16.3185,0,0,0-9.1852,5.0121c-2.53,2.833-3.0334,6.2136-3.0686,9.8294A5.1467,5.1467,0,0,1,30.6907,31.88a7.4323,7.4323,0,0,0-1.87,3.3914c-.28,1.5178-.7525,3.3731-1.8194,4.3-2.8228,2.4534-1.8807,4.823.5742,6.3673a18.76,18.76,0,0,0,5.2126,1.835c3.87,1.0225,7.7468,2.0478,11.6712,2.8145,1.3294.26,2.8093-.2627,4.2218-.415,2.4626-.2655,4.9513-.38,7.384-.8115C60.5834,48.56,65.0739,47.6,69.565,46.6543c1.7359-.3654,3.7635-.4338,5.09-1.41a47.1878,47.1878,0,0,0,5.9222-5.8833C81.942,37.9171,83.372,36.47,83.3065,34.2264Z" fill="#e4e4e6"/><path d="M83.3065,34.2264c.0655,2.2431-1.3645,3.6907-2.7293,5.1348a47.1878,47.1878,0,0,1-5.9222,5.8833c-1.3265.976-3.3541,1.0444-5.09,1.41C65.0739,47.6,60.5834,48.56,56.0655,49.362c-2.4327.4318-4.9214.546-7.384.8115-1.4125.1523-2.8924.6747-4.2218.415-3.9244-.7667-7.8015-1.792-11.6712-2.8145a18.76,18.76,0,0,1-5.2126-1.835c-2.4549-1.5443-3.397-3.9139-.5742-6.3673,1.0669-.9272,1.539-2.7825,1.8194-4.3a7.4323,7.4323,0,0,1,1.87-3.3914,5.1467,5.1467,0,0,0,1.1567-2.8928c.0352-3.6158.5386-6.9964,3.0686-9.8294a16.3185,16.3185,0,0,1,9.1852-5.0121,28.4282,28.4282,0,0,1,19.1376,2.0988c1.0683.5325,1.9557,1.4162,2.9878,2.0359a35.5712,35.5712,0,0,1,3.379,1.8245c1.1418.87,1.9685,2.1548,3.1121,3.022,2.1728,1.6477,4.5578,3.02,6.6973,4.7063C81.46,29.4454,83.1484,31.4052,83.3065,34.2264Zm-32.9-19.242-.105-.4712c-2.8891.6843-5.8233,1.2219-8.6538,2.0958a6.1839,6.1839,0,0,0-4.6621,5.4787,16.1464,16.1464,0,0,0,.688,5.7847c.7282,2.4678,1.9194,4.7963,2.8552,7.2066a31.2534,31.2534,0,0,1,1.6379,4.8274,16.49,16.49,0,0,1-.0244,3.7863.3657.3657,0,0,1-.252.2516c-2.1956.0765.0243,1.4782-.609,2.0159.3608.2942.7024.8112,1.0856.8443,1.7323.1494,3.4788.1223,5.2156.2315,4.4752.2815,8.9509.9649,13.3753-.492,1.3032-.4291,2.8483-.3018,4.0142-.9285a55.4135,55.4135,0,0,0,5.109-3.599c1.1894-.8266,2.4485-1.5523,3.6529-2.3582,1.7518-1.1722,3.5193-2.327,5.2022-3.5929A3.9508,3.9508,0,0,0,80.295,34.23c.1148-.3665-.4168-1.1224-.85-1.4309a4.7032,4.7032,0,0,0-2.3074-1.0378c-1.3561-.0464-2.8377.6868-4.0614.3491-1.7752-.49-3.756.1955-5.4132-1.2919-1.0263-.9213-1.737-2.0944-.9367-3.345a2.1963,2.1963,0,0,0-1.08-3.2889,2.4024,2.4024,0,0,1-1.9884-2.6094c.0831-2.2685-1.2992-3.516-2.9447-4.4322A19.6068,19.6068,0,0,0,50.4066,14.9844Z" fill="#eeeeef"/><path d="M50.4066,14.9844a19.6068,19.6068,0,0,1,10.3068,2.1589c1.6455.9162,3.0278,2.1637,2.9447,4.4322a2.4024,2.4024,0,0,0,1.9884,2.6094,2.1963,2.1963,0,0,1,1.08,3.2889c-.8,1.2506-.09,2.4237.9367,3.345,1.6572,1.4874,3.638.8021,5.4132,1.2919,1.2237.3377,2.7053-.3955,4.0614-.3491a4.7032,4.7032,0,0,1,2.3074,1.0378c.4332.3085.9648,1.0644.85,1.4309a3.9508,3.9508,0,0,1-1.3588,1.8351c-1.6829,1.2659-3.45,2.4207-5.2022,3.5929-1.2044.8059-2.4635,1.5316-3.6529,2.3582a55.4135,55.4135,0,0,1-5.109,3.599c-1.1659.6267-2.711.4994-4.0142.9285-4.4244,1.4569-8.9.7735-13.3753.492-1.7368-.1092-3.4833-.0821-5.2156-.2315-.3832-.0331-.7248-.55-1.0856-.8443.6333-.5377-1.5866-1.9394.609-2.0159a.3657.3657,0,0,0,.252-.2516,16.49,16.49,0,0,0,.0244-3.7863,31.2534,31.2534,0,0,0-1.6379-4.8274c-.9358-2.41-2.127-4.7388-2.8552-7.2066a16.1464,16.1464,0,0,1-.688-5.7847,6.1839,6.1839,0,0,1,4.6621-5.4787c2.8305-.8739,5.7647-1.4115,8.6538-2.0958Z" fill="#f2f2f3"/><path d="M39.2061,21.734A9.6964,9.6964,0,0,1,49.33,11.61,9.6964,9.6964,0,0,1,59.4537,21.734,9.6964,9.6964,0,0,1,49.33,31.8577,9.6964,9.6964,0,0,1,39.2061,21.734Zm.0868,14.5637h20.074v48.58H39.2929Z" fill="url(#linear-gradient-2)"/></svg>