<svg id="Layer_2" data-name="Layer 2" xmlns="http://www.w3.org/2000/svg" width="100" height="100" viewBox="0 0 100 100"><circle cx="49.8987" cy="50.3371" r="48.8275" fill="#003868"/><path d="M76.3545,11.1983a42.886,42.886,0,0,1,10.2111,9.3884,22.2047,22.2047,0,0,0,.5859,2.1708c.641,1.7027,1.4274,3.3544,2.0029,5.0774,1.3318,3.9871.9187,8.0943.5517,12.1584-.2835,3.14-.7906,6.2632-1.3229,9.3726a3.36,3.36,0,0,1-1.1762,2.1123c-1.4106.8992-1.4649,3.495-.2738,4.3388,1.4565,1.0318,1.1378,2.5959,1.0226,3.7913a16.7974,16.7974,0,0,1-1.6388,4.7333c-1.1941,2.79-2.53,5.5206-3.7132,8.3152a24.1981,24.1981,0,0,1-7.4849,9.3789A30.8614,30.8614,0,0,1,63.6819,88.19,111.792,111.792,0,0,1,51.635,90.6664a31.0338,31.0338,0,0,1-7.3795-.0845,46.4441,46.4441,0,0,1-7.125-1.3336,53.0939,53.0939,0,0,1-6.2224-2.1747,25.9818,25.9818,0,0,1-4.0043-2.006A42.1923,42.1923,0,0,1,22,81.647a64.3725,64.3725,0,0,1-4.7762-4.5925c-4.4089-4.5328-5.9508-10.1555-6.1225-16.2959-.0883-3.1593-.19-6.32-.377-9.4745-.2076-3.4943-.84-6.9958-.6947-10.47A31.6441,31.6441,0,0,1,11.7672,31.07a31.5481,31.5481,0,0,1,5.1781-8.6314,68.1322,68.1322,0,0,1,9.3263-9.5211,45.616,45.616,0,0,1,9.2339-5.3859,35.75,35.75,0,0,1,17.4075-3.54,24.4631,24.4631,0,0,1,6.6507,1.0342C63.6319,6.41,67.55,8.2279,71.57,9.7649a39.1285,39.1285,0,0,0,4.3619,1.1378l.0641.0336-.0652.287ZM89.2019,32.1276l-.1639-.6592-.335-2.9641L88.38,27.68l-.0061-.33-.32-.4962-.0094-.3286c-1.6406-2.6336-3.16-5.3548-4.9768-7.8608-.8147-1.1239-2.2287-1.8108-3.3622-2.7068a35.45,35.45,0,0,0-4.5788-3.5614,66.6335,66.6335,0,0,0-6.3622-2.6047,54.6375,54.6375,0,0,1-5.2569-2.4054A21.261,21.261,0,0,0,52.4457,4.4922a65.7987,65.7987,0,0,0-8.8172,1,27.492,27.492,0,0,0-5.94,1.6721,45.3105,45.3105,0,0,0-5.0661,2.9049c-3.7189,2.1546-7.424,4.3386-10.27,7.65-2.2721,2.6437-4.4911,5.334-6.6948,8.0352a20.6012,20.6012,0,0,0-4.3395,11.7911,23.98,23.98,0,0,0,.5135,7.25c.7374,3.1022,1.2324,4.6441,4.4818,5.2453,1.0181.1884,2.0436.3426,3.07.4761,2.5237.3283,5.0476.6578,7.5763.943,1.6681.1881,3.3481.2745,5.0127.4854.1683.0213.4392.8179.3727.8677a15.0834,15.0834,0,0,1-2.7973,1.8631c-1.4869.6577-3.128.9714-4.6041,1.6482a77.7843,77.7843,0,0,0-8.0281,4.0691,5.24,5.24,0,0,0-2.4069,3.1384,12.7211,12.7211,0,0,0,.492,6.039,17.0877,17.0877,0,0,0,3.7657,5.7346,20.4009,20.4009,0,0,0,5.16,3.2525,36.4352,36.4352,0,0,0,3.9649,1.5285c.7625.294,1.4963.6722,2.2733.916a3.8316,3.8316,0,0,0,1.7467.2415,13.7782,13.7782,0,0,0,2.3542-.8411.8089.8089,0,0,0,.3668-.2574,6.49,6.49,0,0,1,4.6335-1.92,3.56,3.56,0,0,0,1.0777-.0163c.12-1.89,2.1729-.4167,2.6861-1.5568.7.3521,1.4391,1.42,2.0331-.1138.1114.07.22.1948.3348.2007a3.56,3.56,0,0,0,.95-.0428c.2676-.06.5124-.333.7651-.33a5.8485,5.8485,0,0,0,3.5737-.6276c.0787-.053.3276.0313.4161.127.5151.5568,1.8534-.16,1.8421,1.1923.2473-.0929.59-.1125.7264-.29,1.0066-1.316.9967.1623,1.3881.4925.4977.42.9984,1.2516,1.4591,1.2254a48.95,48.95,0,0,0,4.9652-.7451c.8647-.1394,1.9523-.6556,2.556-.3175,1.6621.931,3.08,2.1168,5.2467,1.6583,1.07-.2264,2.3407.8445,3.3509-.4079.0639-.0791.259-.0539.3934-.0745a7.252,7.252,0,0,0,5.6256-3.9645A56.277,56.277,0,0,0,81.39,69.237a8.95,8.95,0,0,0,.3905-6.75A13.95,13.95,0,0,0,78.4077,57.21c-1.5273-1.4694-2.8773-3.0812-5.1031-3.517a28.3707,28.3707,0,0,1-3.9017-.9369,8.4936,8.4936,0,0,1-1.9187-1.3383A7.3381,7.3381,0,0,1,69.5,50.62c1.9869-.156,4.0273.0814,5.9705-.2641a31.5505,31.5505,0,0,0,5.8749-1.8908,13.0915,13.0915,0,0,0,2.5191-1.63,9.9477,9.9477,0,0,0,2.6212-1.9641c2.47-3.532,2.6073-7.7448,3.121-11.83.0085-.0676-.2605-.17-.4-.2562Z" fill="#1e437d"/><path d="M88.5142,23.2293A47.2825,47.2825,0,0,1,68.9106,93.6669a46.1644,46.1644,0,0,1-21.6754,4.0183c-12.8525-.8045-23.8616-5.8615-32.499-15.42C-2.9463,62.6966-1.6386,33.6118,17.6823,15.4541A45.1389,45.1389,0,0,1,42.3933,3.575c-.2217.1543-.4247.3995-.6678.4495C35.4776,5.3092,30.0843,8.5256,25.031,12.116c-3.2071,2.2786-5.7963,5.4872-8.4427,8.4735a26.0522,26.0522,0,0,0-4.6287,6.58A74.9255,74.9255,0,0,0,8.189,38.8,56.04,56.04,0,0,0,6.86,48.132a47.1425,47.1425,0,0,0,.3325,6.1732,35.5271,35.5271,0,0,0,.3219,5.3587A46.9271,46.9271,0,0,0,10.166,69.24a66.6639,66.6639,0,0,0,5.849,9.5939,29.5193,29.5193,0,0,0,11.6463,9.93c4.4529,2.1929,8.968,4.25,13.9464,5.0037a46.1876,46.1876,0,0,0,14.2916.182c5.1156-.814,10.118-1.9811,14.4651-4.8869a96.9043,96.9043,0,0,0,9.45-7.1876,30.9307,30.9307,0,0,0,4.918-5.6583c1.5432-2.1928,2.62-4.71,4.1185-6.9389,2.5882-3.8508,3.2956-8.2223,3.7864-12.6578.2509-2.2665.265-4.5609.3456-6.8442a34.5638,34.5638,0,0,0,.0644-5.8586C92.53,40.1533,91.8216,36.4056,90.9781,32.7c-.6912-3.0365-1.6955-6.0015-2.5477-9.002C88.3914,23.5608,88.4833,23.3864,88.5142,23.2293Z" fill="#0f254d"/><path d="M88.5142,23.2293c-.0309.1571-.1228.3315-.0838.4687.8522,3,1.8565,5.9655,2.5477,9.002.8435,3.7056,1.5521,7.4533,2.0694,11.2172a34.5638,34.5638,0,0,1-.0644,5.8586c-.0806,2.2833-.0947,4.5777-.3456,6.8442-.4908,4.4355-1.1982,8.807-3.7864,12.6578-1.4983,2.2291-2.5753,4.7461-4.1185,6.9389a30.9307,30.9307,0,0,1-4.918,5.6583,96.9043,96.9043,0,0,1-9.45,7.1876c-4.3471,2.9058-9.35,4.0729-14.4651,4.8869a46.1876,46.1876,0,0,1-14.2916-.182c-4.9784-.7541-9.4935-2.8108-13.9464-5.0037a29.5193,29.5193,0,0,1-11.6463-9.93A66.6639,66.6639,0,0,1,10.166,69.24a46.9271,46.9271,0,0,1-2.6519-9.5764,35.5271,35.5271,0,0,1-.3219-5.3587A47.1425,47.1425,0,0,1,6.86,48.132,56.04,56.04,0,0,1,8.189,38.8,74.9255,74.9255,0,0,1,11.96,27.1694a26.0522,26.0522,0,0,1,4.6287-6.58c2.6464-2.9863,5.2356-6.1949,8.4427-8.4735,5.0533-3.59,10.4466-6.8068,16.6945-8.0915.2431-.05.4461-.2952.6678-.4495l.5028-.0919.2283.27.27-.3125c4.5039.0158,9.0412-.3066,13.5031.1344a39.5286,39.5286,0,0,1,15.1657,4.98c1.32.7275,2.58,1.5627,3.8683,2.3482A39.1768,39.1768,0,0,1,71.57,9.7649C67.55,8.2279,63.6319,6.41,59.5637,5.0258A24.4631,24.4631,0,0,0,52.913,3.9916a35.75,35.75,0,0,0-17.4075,3.54,45.616,45.616,0,0,0-9.2339,5.3859,68.1322,68.1322,0,0,0-9.3263,9.5211A31.5481,31.5481,0,0,0,11.7672,31.07,31.6441,31.6441,0,0,0,10.03,40.8146c-.145,3.4737.4871,6.9752.6947,10.47.1874,3.1546.2887,6.3152.377,9.4745.1717,6.14,1.7136,11.7631,6.1225,16.2959A64.3725,64.3725,0,0,0,22,81.647a42.1923,42.1923,0,0,0,4.9034,3.4206,25.9818,25.9818,0,0,0,4.0043,2.006,53.0939,53.0939,0,0,0,6.2224,2.1747,46.4441,46.4441,0,0,0,7.125,1.3336,31.0338,31.0338,0,0,0,7.38.0845A111.792,111.792,0,0,0,63.6819,88.19a30.8614,30.8614,0,0,0,11.437-6.1545,24.1981,24.1981,0,0,0,7.4849-9.3789c1.1836-2.7946,2.5191-5.5248,3.7132-8.3152a16.7974,16.7974,0,0,0,1.6388-4.7333c.1152-1.1954.4339-2.76-1.0226-3.7913-1.1911-.8438-1.1368-3.44.2738-4.3388a3.36,3.36,0,0,0,1.1762-2.1123c.5323-3.1094,1.0394-6.2331,1.3229-9.3726.367-4.0641.78-8.1713-.5517-12.1584-.5755-1.723-1.3619-3.3747-2.0029-5.0774a22.2047,22.2047,0,0,1-.5859-2.1708Z" fill="#18376b"/><path d="M43.3942,3.44l-.27.3125-.2283-.27Z" fill="#0f254d"/><path d="M76.3545,11.1983l-.4242.025.0652-.287Q76.1752,11.0673,76.3545,11.1983Z" fill="#18376b"/><path d="M88.703,28.5043q.1676,1.482.335,2.9641l.1639.6592.0042.6572q-.41.6614-.8191,1.3227c-.0536-.091-.173-.2036-.1513-.27.764-2.3324-.1927-4.4441-1.0294-6.4737-1.1716-2.8417-2.6723-5.4544-5.4646-7.2035-1.7845-1.1178-3.2091-2.8-4.8468-4.1666a13.6794,13.6794,0,0,0-2.9173-2.0574c-3.12-1.4294-6.3812-2.5641-9.4525-4.0857A26.9348,26.9348,0,0,0,53.9988,6.6415a27.4855,27.4855,0,0,0-7.2509.3463,54.2132,54.2132,0,0,0-10.6295,3.283c-2.5037,1.1275-4.6155,3.1693-6.8153,4.9132a45.2772,45.2772,0,0,0-4.6709,4.1849c-2.3261,2.44-4.5168,5.01-6.746,7.5421a7.7675,7.7675,0,0,0-1.865,2.3912c-.9721,3.1756-2.13,6.3711-1.2937,9.7982.7028,2.88.5427,6.2323,4.1651,7.5066,2.2939.8071,4.5339,1.7945,6.869,2.4477,1.5534.4345,3.2443.35,4.8512.6279,1.9715.34,3.9259.7887,5.8755,1.2425,1.1855.276,2.7553-.0857,3.255,1.51.4024,1.2853.3387,2.5948-1.1117,3.2727-.7.327-1.5379.357-2.2387.6823-.61.2831-1.6418.9534-1.5745,1.1735.2714.8872.85,1.6746,2.09,1.2178a4.9665,4.9665,0,0,1,2.0644-.393c3.1674.285,6.367-.4934,9.5209.9969,2.4325,1.1494,5.2529,1.4562,7.8671,2.2487,2.302.6978,4.5664,1.5249,6.8274,2.3495a7.631,7.631,0,0,1,1.73.9866c1.0207.721,1.9977,1.5035,3.0043,2.2449a1.72,1.72,0,0,0,2.4819-.0983,9.9071,9.9071,0,0,1,2.1476-1.0765,6.89,6.89,0,0,0,2.2631-1.2959c1.719-2.1258.8469-3.4622-1.1454-5.1277-3.2143-2.687-6.7231-4.7926-11.1624-5.0391-.9682-.0538-1.8515-1.6377-2.7739-2.517.6216-.6149,1.1414-1.5213,1.8868-1.7816a23.641,23.641,0,0,1,4.3531-.8406c2.7307-.4023,5.4761-.7092,8.2017-1.1413,3.2227-.5109,5.7012-2.3921,8.1827-4.381a11.356,11.356,0,0,0,3.79-5.0514,41.3137,41.3137,0,0,1,2.2394-4.4316,5.6827,5.6827,0,0,1,.0229,1.5422c-.253.9717-.7149,1.889-.9681,2.8606-1.183,4.5391-4.6147,7.0674-8.4389,9.0283-1.6575.85-3.74.9-5.6423,1.2364-2.1322.3774-4.2873.6259-6.4178,1.0115-1.5377.2783-3.0567.6693-4.57,1.0634-.2108.0549-.3419.4159-.51.6351a2.421,2.421,0,0,0,.6917.4079,23.5473,23.5473,0,0,1,3.6138.6468c3.3545,1.2178,6.8194,2.1228,9.628,4.6379,3.0819,2.76,5.2217,5.8523,4.0709,10.0585a12.3434,12.3434,0,0,1-3.2006,4.8838c-.675.7-2.1671.6206-3.2941.874-.3713.0834-.85.2765-1.1213.1289-3.38-1.8371-6.7567-3.5712-10.7356-3.8251a4.46,4.46,0,0,1-2.7987-1.5752c-1.5452-1.9012-3.2474-2.7728-5.73-2.1922a12.4588,12.4588,0,0,1-3.52.0424c-1.0144-.0618-2.0248-.4257-3.0273-.3892-1.2845.0467-2.5767.59-3.8333.494-1.2188-.0928-1.9651-.35-2.805,1.0721a15.9864,15.9864,0,0,1-4.0249,3.9906,11.0269,11.0269,0,0,1-3.894,2.1576,10.4393,10.4393,0,0,1-3.9789-.25c-1.3848-.2149-2.7663-.9274-4.1076-.8326-1.9377.137-3.619-.0423-4.7973-1.6529-.6349-.8679-1.5267-2.0791-1.3324-2.9078A10.4154,10.4154,0,0,1,19.9343,63.23a30.6459,30.6459,0,0,1,4.78-4.06,22.7374,22.7374,0,0,1,3.4582-1.9717c2.6557-1.3293,5.3424-2.5966,7.9942-3.9334.1153-.058.1022-.7668-.0077-.8149a17.9567,17.9567,0,0,0-3.8606-1.5019c-3.7485-.67-7.55-1.0444-11.2983-1.7144-3.48-.6218-7.1012-1.1409-7.8509-5.6985-.5281-3.2107-1.2046-6.3613-.587-9.6636a20.0673,20.0673,0,0,1,5.46-10.3687c3.4582-3.6051,6.4041-7.717,10.8007-10.398,3.9358-2.4,7.8056-4.9114,12.2914-6.14A33.6187,33.6187,0,0,1,54.272,5.65a32.3639,32.3639,0,0,1,7.2557,1.8213c4.0928,1.5429,8.0906,3.3446,12.092,5.1194a17.8721,17.8721,0,0,1,3.3969,2.0341,43.3517,43.3517,0,0,1,4.0387,3.4106c1.6957,1.6234,3.3655,3.2887,4.8919,5.0686a24.2061,24.2061,0,0,1,2.0975,3.42l.0093.3287q.16.2481.32.4962l.006.33Z" fill="#2a5f9f"/><path d="M88.387,34.1075q.4095-.6613.8191-1.3227c.14.0862.4086.1886.4.2562-.5137,4.0851-.6514,8.2979-3.121,11.83A9.9477,9.9477,0,0,1,83.864,46.835a13.0915,13.0915,0,0,1-2.5191,1.63A31.5505,31.5505,0,0,1,75.47,50.3563c-1.9432.3455-3.9836.1081-5.9705.2641a7.3381,7.3381,0,0,0-2.0153.7975,8.4936,8.4936,0,0,0,1.9187,1.3383,28.3707,28.3707,0,0,0,3.9017.9369c2.2258.4358,3.5758,2.0476,5.1031,3.517A13.95,13.95,0,0,1,81.78,62.4869a8.95,8.95,0,0,1-.3905,6.75,56.277,56.277,0,0,1-2.7337,5.3976A7.252,7.252,0,0,1,73.03,78.5991c-.1344.0206-.3295-.0046-.3934.0745-1.01,1.2524-2.2811.1815-3.3509.4079-2.1665.4585-3.5846-.7273-5.2467-1.6583-.6037-.3381-1.6913.1781-2.556.3175a48.95,48.95,0,0,1-4.9652.7451c-.4607.0262-.9614-.8055-1.4591-1.2254-.3914-.33-.3815-1.8085-1.3881-.4925-.136.1779-.4791.1975-.7264.29.0113-1.3519-1.327-.6355-1.8421-1.1923-.0885-.0957-.3374-.18-.4161-.127a5.8485,5.8485,0,0,1-3.5737.6276c-.2527-.003-.4975.27-.7651.33a3.56,3.56,0,0,1-.95.0428c-.1148-.0059-.2234-.13-.3348-.2007-.594,1.5337-1.3335.4659-2.0331.1138-.5132,1.14-2.5656-.3331-2.6861,1.5568a3.56,3.56,0,0,1-1.0777.0163,6.49,6.49,0,0,0-4.6335,1.92.8089.8089,0,0,1-.3668.2574,13.7782,13.7782,0,0,1-2.3542.8411,3.8316,3.8316,0,0,1-1.7467-.2415c-.777-.2438-1.5108-.622-2.2733-.916a36.4352,36.4352,0,0,1-3.9649-1.5285,20.4009,20.4009,0,0,1-5.16-3.2525,17.0877,17.0877,0,0,1-3.7657-5.7346,12.7211,12.7211,0,0,1-.492-6.039,5.24,5.24,0,0,1,2.4069-3.1384,77.7843,77.7843,0,0,1,8.0281-4.0691c1.4761-.6768,3.1172-.9905,4.6041-1.6482a15.0834,15.0834,0,0,0,2.7973-1.8631c.0665-.05-.2044-.8464-.3727-.8677-1.6646-.2109-3.3446-.2973-5.0127-.4854-2.5287-.2852-5.0526-.6147-7.5763-.943-1.0269-.1335-2.0524-.2877-3.07-.4761-3.2494-.6012-3.7444-2.1431-4.4818-5.2453a23.98,23.98,0,0,1-.5135-7.25,20.6012,20.6012,0,0,1,4.3395-11.7911c2.2037-2.7012,4.4227-5.3915,6.6948-8.0352,2.8457-3.3113,6.5508-5.4953,10.27-7.65a45.3105,45.3105,0,0,1,5.0661-2.9049,27.492,27.492,0,0,1,5.94-1.6721,65.7987,65.7987,0,0,1,8.8172-1A21.261,21.261,0,0,1,63.5078,7.3855a54.6375,54.6375,0,0,0,5.2569,2.4054,66.6335,66.6335,0,0,1,6.3622,2.6047,35.45,35.45,0,0,1,4.5788,3.5614c1.1335.896,2.5475,1.5829,3.3622,2.7068,1.8166,2.506,3.3362,5.2272,4.9768,7.8608a24.2015,24.2015,0,0,0-2.0975-3.42c-1.5264-1.78-3.1962-3.4452-4.8919-5.0686a43.3517,43.3517,0,0,0-4.0387-3.4106A17.8721,17.8721,0,0,0,73.62,12.5909c-4.0014-1.7748-7.9992-3.5765-12.092-5.1194A32.3639,32.3639,0,0,0,54.272,5.65,33.6187,33.6187,0,0,0,41.1137,6.9647c-4.4858,1.2282-8.3556,3.74-12.2914,6.14-4.3966,2.681-7.3425,6.7929-10.8007,10.398a20.0673,20.0673,0,0,0-5.46,10.3687c-.6176,3.3023.0589,6.4529.587,9.6636.75,4.5576,4.3714,5.0767,7.8509,5.6985,3.7485.67,7.55,1.0444,11.2983,1.7144a17.9567,17.9567,0,0,1,3.8606,1.5019c.11.0481.123.7569.0077.8149-2.6518,1.3368-5.3385,2.6041-7.9942,3.9334a22.7374,22.7374,0,0,0-3.4582,1.9717,30.6459,30.6459,0,0,0-4.78,4.06,10.4154,10.4154,0,0,0-2.2674,4.3512c-.1943.8287.6975,2.04,1.3324,2.9078,1.1783,1.6106,2.86,1.79,4.7973,1.6529,1.3413-.0948,2.7228.6177,4.1076.8326a10.4393,10.4393,0,0,0,3.9789.25,11.0269,11.0269,0,0,0,3.894-2.1576,15.9864,15.9864,0,0,0,4.0249-3.9906c.84-1.4226,1.5862-1.1649,2.805-1.0721,1.2566.0958,2.5488-.4473,3.8333-.494,1.0025-.0365,2.0129.3274,3.0273.3892a12.4588,12.4588,0,0,0,3.52-.0424c2.4822-.5806,4.1844.291,5.73,2.1922a4.46,4.46,0,0,0,2.7987,1.5752c3.9789.2539,7.356,1.988,10.7356,3.8251.2715.1476.75-.0455,1.1213-.1289,1.127-.2534,2.6191-.1736,3.2941-.874a12.3434,12.3434,0,0,0,3.2006-4.8838c1.1508-4.2062-.989-7.2986-4.0709-10.0585-2.8086-2.5151-6.2735-3.42-9.628-4.6379a23.5473,23.5473,0,0,0-3.6138-.6468,2.421,2.421,0,0,1-.6917-.4079c.1679-.2192.299-.58.51-.6351,1.5134-.3941,3.0324-.7851,4.57-1.0634,2.1305-.3856,4.2856-.6341,6.4178-1.0115,1.9027-.3369,3.9848-.3864,5.6423-1.2364,3.8242-1.9609,7.2559-4.4892,8.4389-9.0283.2532-.9716.7151-1.8889.9681-2.8606a5.6788,5.6788,0,0,0-.023-1.5422Q88.3871,34.2705,88.387,34.1075Z" fill="#234d8b"/><path d="M88.703,28.5043l-.3231-.8249Z" fill="#234d8b"/><path d="M89.2019,32.1276l-.1639-.6592Z" fill="#234d8b"/><path d="M88.3739,27.3494q-.16-.2481-.32-.4962Q88.2141,27.1013,88.3739,27.3494Z" fill="#234d8b"/><path d="M88.387,34.1075q0,.1629,0,.3259a41.3314,41.3314,0,0,0-2.2393,4.4316,11.356,11.356,0,0,1-3.79,5.0514c-2.4815,1.9889-4.96,3.87-8.1827,4.381-2.7256.4321-5.471.739-8.2017,1.1413a23.641,23.641,0,0,0-4.3531.8406c-.7454.26-1.2652,1.1667-1.8868,1.7816.9224.8793,1.8057,2.4632,2.7739,2.517,4.4393.2465,7.9481,2.3521,11.1624,5.0391,1.9923,1.6655,2.8644,3.0019,1.1454,5.1277a6.89,6.89,0,0,1-2.2631,1.2959,9.9071,9.9071,0,0,0-2.1476,1.0765,1.72,1.72,0,0,1-2.4819.0983c-1.0066-.7414-1.9836-1.5239-3.0043-2.2449a7.631,7.631,0,0,0-1.73-.9866c-2.261-.8246-4.5254-1.6517-6.8274-2.3495-2.6142-.7925-5.4346-1.0993-7.8671-2.2487-3.1539-1.49-6.3535-.7119-9.5209-.9969a4.9665,4.9665,0,0,0-2.0644.393c-1.24.4568-1.8185-.3306-2.09-1.2178-.0673-.22.9644-.89,1.5745-1.1735.7008-.3253,1.539-.3553,2.2387-.6823,1.45-.6779,1.5141-1.9874,1.1117-3.2727-.5-1.5961-2.0695-1.2344-3.255-1.51-1.95-.4538-3.904-.9022-5.8755-1.2425-1.6069-.2775-3.2978-.1934-4.8512-.6279-2.3351-.6532-4.5751-1.6406-6.869-2.4477C15.27,45.3327,15.43,41.98,14.7275,39.1c-.8364-3.4271.3216-6.6226,1.2937-9.7982a7.7675,7.7675,0,0,1,1.865-2.3912c2.2292-2.5318,4.42-5.1018,6.746-7.5421a45.2772,45.2772,0,0,1,4.6709-4.1849c2.2-1.7439,4.3116-3.7857,6.8153-4.9132a54.2132,54.2132,0,0,1,10.63-3.283,27.4855,27.4855,0,0,1,7.2509-.3463A26.9348,26.9348,0,0,1,64.5251,9.8506c3.0713,1.5216,6.3321,2.6563,9.4525,4.0857a13.6794,13.6794,0,0,1,2.9173,2.0574c1.6377,1.367,3.0623,3.0488,4.8468,4.1666,2.7923,1.7491,4.293,4.3618,5.4646,7.2035.8367,2.03,1.7934,4.1413,1.0294,6.4737C88.214,33.9039,88.3334,34.0165,88.387,34.1075ZM56.2509,56.8029a18.8414,18.8414,0,0,0,2.5188-.545c.2644-.0982.623-.7177.539-.8547-.5875-.9574-1.2807-1.85-1.9376-2.7651a2.3529,2.3529,0,0,1-.2936-.4525c.7785-.7143,1.48-1.8,2.3937-2.03a91.3959,91.3959,0,0,1,11.87-2.4585,14.9694,14.9694,0,0,0,10.6212-5.6344c.8824-1.1077,1.5868-2.3661,2.5277-3.4167,2.0319-2.2687,3.47-4.6533,2.7532-7.8973-.9868-4.4683-2.864-8.1323-7.5483-9.792-.9862-.3494-1.7053-1.4464-2.5543-2.1911a29.0041,29.0041,0,0,0-3.8633-3.2827c-1.315-.7921-3.1509-.7914-4.3543-1.6836A31.887,31.887,0,0,0,56.0544,8.054a21.4942,21.4942,0,0,0-10.67.1957,69.5614,69.5614,0,0,0-7.7193,2.37,22.159,22.159,0,0,0-4.98,3.6082,33.478,33.478,0,0,0-2.5572,2.8952c-1.4245,1.5273-3.186,2.7762-3.6239,5.0463a4.72,4.72,0,0,1-1.02,2.1829c-1.1408,1.2692-2.4718,2.3653-3.6741,3.5824a11.0063,11.0063,0,0,0-2.5386,2.9322,11.7557,11.7557,0,0,0-.5641,4.1154,28.85,28.85,0,0,0,.0923,6.1453,6.722,6.722,0,0,0,2.1148,3.8644,18.82,18.82,0,0,0,9.843,4.0662c2.6217.2571,5.2383.6274,7.8312,1.0919,1.4787.2649,2.9758.8664,3.1121,2.6639.2245,2.9618,2.2739,3.2147,4.42,3.0462a11.4092,11.4092,0,0,1,3.4217.0436,3.4613,3.4613,0,0,0,3.4-.6744c.365-.3077,1.398-.1212,1.95.1712A5.6519,5.6519,0,0,1,56.2509,56.8029Z" fill="#3877b1"/><path d="M56.2509,56.8029a5.6519,5.6519,0,0,0-1.36-1.4024c-.5519-.2924-1.5849-.4789-1.95-.1712a3.4613,3.4613,0,0,1-3.4.6744A11.4092,11.4092,0,0,0,46.12,55.86c-2.1457.1685-4.1951-.0844-4.42-3.0462-.1363-1.7975-1.6334-2.399-3.1121-2.6639-2.5929-.4645-5.2095-.8348-7.8312-1.0919a18.82,18.82,0,0,1-9.843-4.0662,6.722,6.722,0,0,1-2.1148-3.8644,28.85,28.85,0,0,1-.0923-6.1453,11.7557,11.7557,0,0,1,.5641-4.1154A11.0063,11.0063,0,0,1,21.81,27.9346c1.2023-1.2171,2.5333-2.3132,3.6741-3.5824a4.72,4.72,0,0,0,1.02-2.1829c.4379-2.27,2.1994-3.519,3.6239-5.0463a33.478,33.478,0,0,1,2.5572-2.8952,22.159,22.159,0,0,1,4.98-3.6082,69.5614,69.5614,0,0,1,7.7193-2.37,21.4942,21.4942,0,0,1,10.67-.1957A31.887,31.887,0,0,1,68.9235,13.8c1.2034.8922,3.0393.8915,4.3543,1.6836a29.0041,29.0041,0,0,1,3.8633,3.2827c.849.7447,1.5681,1.8417,2.5543,2.1911,4.6843,1.66,6.5615,5.3237,7.5483,9.792.7164,3.244-.7213,5.6286-2.7532,7.8973-.9409,1.0506-1.6453,2.309-2.5277,3.4167a14.9694,14.9694,0,0,1-10.6212,5.6344,91.3959,91.3959,0,0,0-11.87,2.4585c-.914.2294-1.6152,1.3155-2.3937,2.03a2.3529,2.3529,0,0,0,.2936.4525c.6569.9151,1.35,1.8077,1.9376,2.7651.084.137-.2746.7565-.539.8547A18.8414,18.8414,0,0,1,56.2509,56.8029ZM23.95,41.8823a7.4537,7.4537,0,0,0,.3567,1.6327,7.755,7.755,0,0,0,5.0616,3.8739c2.5626.6347,5.1811,1.043,7.7745,1.5536,1.0087.1986,2.0379.3335,3.0173.6307a35.137,35.137,0,0,0,4.4343,1.4685c.979.1565,2.0614-.5092,3.1145-.5937,1.2245-.0984,2.502.2355,3.6961.03,3.3183-.5695,6.5951-1.377,9.9076-1.9854,3.4476-.6333,6.9057-1.2388,10.3818-1.6777a10.6957,10.6957,0,0,0,6.7929-3.5409,94.1,94.1,0,0,0,6.6431-7.9423A8.1129,8.1129,0,0,0,86.1931,31.15a5.3011,5.3011,0,0,0-.9885-2.8665c-1.1523-1.7862-2.34-3.6543-4.6017-4.2267-2.8282-.7158-5.2827-1.7751-6.6188-4.7063-.4061-.8911-1.6254-1.51-2.595-2.0205-1.1775-.62-2.6013-.8088-3.7108-1.512-2.0116-1.2748-3.8238-2.86-5.8034-4.1906A16.2116,16.2116,0,0,0,53.95,8.8991a23.4786,23.4786,0,0,0-11.6165,1.5283c-3.3681,1.4891-6.6374,3.1393-8.6213,6.4383-1.5,2.4941-2.8147,5.1123-2.4894,8.1527.2408,2.25-.5756,4.1908-1.4516,6.1444-.1183.2638-.2282.6744-.4288.7364-2.1413.6621-.8773,2.9155-1.973,4.15-.7606.8568-.9013,2.2333-1.5,3.2737A23.071,23.071,0,0,1,23.95,41.8823Z" fill="#478fc8"/><path d="M23.95,41.8823a23.071,23.071,0,0,0,1.92-2.56c.5982-1.04.7389-2.4169,1.5-3.2737,1.0957-1.2342-.1683-3.4876,1.973-4.15.2006-.062.31-.4726.4288-.7364.876-1.9536,1.6924-3.8941,1.4516-6.1444-.3253-3.04.99-5.6586,2.4894-8.1527,1.9839-3.299,5.2532-4.9492,8.6213-6.4383A23.4786,23.4786,0,0,1,53.95,8.8991a16.2116,16.2116,0,0,1,7.9246,2.7279c1.98,1.33,3.7918,2.9158,5.8034,4.1906,1.11.7032,2.5333.8923,3.7108,1.512.97.51,2.1889,1.1294,2.595,2.0205,1.3361,2.9312,3.7906,3.99,6.6188,4.7063,2.2617.5724,3.4494,2.4405,4.6017,4.2267a5.3011,5.3011,0,0,1,.9885,2.8665,8.1129,8.1129,0,0,1-1.0623,4.1826,94.1,94.1,0,0,1-6.6431,7.9423,10.6957,10.6957,0,0,1-6.7929,3.5409c-3.4761.4389-6.9342,1.0444-10.3818,1.6777-3.3125.6084-6.5893,1.4159-9.9076,1.9854-1.1941.205-2.4716-.1289-3.6961-.03-1.0531.0845-2.1355.75-3.1145.5937a35.137,35.137,0,0,1-4.4343-1.4685c-.9794-.2972-2.0086-.4321-3.0173-.6307-2.5934-.5106-5.2119-.9189-7.7745-1.5536a7.755,7.755,0,0,1-5.0616-3.8739A7.4537,7.4537,0,0,1,23.95,41.8823ZM69.8559,22.454l.6054-.494a6.4831,6.4831,0,0,0-1.7782-.84c-2.5218-.3352-3.0807-.8818-3.41-3.4862a3.4119,3.4119,0,0,0-.91-2.1035,24.8727,24.8727,0,0,0-5.6411-3.879,21.165,21.165,0,0,0-6.9354-1.37c-3.3956-.1719-6.8138-.0221-9.6857,2.3363-1.6423,1.3487-3.4874,2.4527-5.1081,3.8241a3.6627,3.6627,0,0,0-.9328,2.1228,33.4194,33.4194,0,0,0-.6165,5.93,18.0021,18.0021,0,0,0,1.0394,4.4465,46.8367,46.8367,0,0,0,1.7964,5.4615,8.9136,8.9136,0,0,1,.9616,5.0153c-.0779.4784-.7536.8678-1.174,1.2785-.2.1958-.4923.3092-.6607.5243-.3283.4193-.5929.888-.8947,1.3289-.4972.7264-1.58,1.8339-1.4017,2.1005a6.151,6.151,0,0,0,2.667,2.3826,16.5363,16.5363,0,0,0,4.7262.7258c3.2906.1859,6.5888.3308,9.8834.3212a53.4231,53.4231,0,0,0,6.7873-.501,42.22,42.22,0,0,0,4.535-1.0926,27.4872,27.4872,0,0,0,3.605-.9163c1.4568-.58,2.7636-1.5635,4.24-2.0593A6.8812,6.8812,0,0,0,75.29,40.8614a9.4964,9.4964,0,0,1,1.52-1.89c.6327-.5454,1.4766-.8374,2.1591-1.335,1.36-.9917,2.6989-2.0167,3.9916-3.0939a3.5272,3.5272,0,0,0,1.2421-1.5477c.3989-1.537-2.3413-5.16-3.91-5.1186-2.5117.0658-5.0172.4444-7.527.4626a2.656,2.656,0,0,1-2.1047-1.2159A27.132,27.132,0,0,1,69.8559,22.454Z" fill="#67b0db"/><path d="M69.8559,22.454a27.132,27.132,0,0,0,.8056,4.6692,2.656,2.656,0,0,0,2.1047,1.2159c2.51-.0182,5.0153-.3968,7.527-.4626,1.5684-.0411,4.3086,3.5816,3.91,5.1186a3.5272,3.5272,0,0,1-1.2421,1.5477c-1.2927,1.0772-2.6316,2.1022-3.9916,3.0939-.6825.4976-1.5264.79-2.1591,1.335a9.4964,9.4964,0,0,0-1.52,1.89,6.8812,6.8812,0,0,1-3.7363,2.6491c-1.4769.4958-2.7837,1.4792-4.24,2.0593a27.4872,27.4872,0,0,1-3.605.9163,42.22,42.22,0,0,1-4.535,1.0926,53.4231,53.4231,0,0,1-6.7873.501c-3.2946.01-6.5928-.1353-9.8834-.3212a16.5363,16.5363,0,0,1-4.7262-.7258A6.151,6.151,0,0,1,35.11,44.65c-.1787-.2666.9045-1.3741,1.4017-2.1005.3018-.4409.5664-.91.8947-1.3289.1684-.2151.46-.3285.6607-.5243.42-.4107,1.0961-.8,1.174-1.2785a8.9136,8.9136,0,0,0-.9616-5.0153,46.8367,46.8367,0,0,1-1.7964-5.4615,18.0021,18.0021,0,0,1-1.0394-4.4465,33.4194,33.4194,0,0,1,.6165-5.93,3.6627,3.6627,0,0,1,.9328-2.1228c1.6207-1.3714,3.4658-2.4754,5.1081-3.8241,2.8719-2.3584,6.29-2.5082,9.6857-2.3363a21.165,21.165,0,0,1,6.9354,1.37,24.8727,24.8727,0,0,1,5.6411,3.879,3.4119,3.4119,0,0,1,.91,2.1035c.3295,2.6044.8884,3.151,3.41,3.4862a6.4831,6.4831,0,0,1,1.7782.84Zm-9.3423-2.7462c-.16-1.4941-3.5-6.09-4.9788-6.2553a48.2657,48.2657,0,0,0-8.5867-.452,7.7534,7.7534,0,0,0-6.7468,4.5553,9.5673,9.5673,0,0,0-1.1473,4.8807c.2986,2.2509,1.4624,4.376,2.1382,6.591A5.9986,5.9986,0,0,0,45.3,32.9623c2.3585.7537,4.6808,2.011,7.3238,1.6509.4368-.0595.9415.1719,1.3335.0353.7169-.25,1.3412-.7726,2.061-1.0058,1.6632-.5388,3.9672-3.69,3.9065-5.47a29.5844,29.5844,0,0,1-.078-3.4C59.9859,23.0778,60.2835,21.3956,60.5136,19.7078Z" fill="#8fc5e2"/><path d="M60.5136,19.7078c-.23,1.6878-.5277,3.37-.6665,5.0652a29.5844,29.5844,0,0,0,.078,3.4c.0607,1.7794-2.2433,4.9308-3.9065,5.47-.72.2332-1.3441.756-2.061,1.0058-.392.1366-.8967-.0948-1.3335-.0353-2.643.36-4.9653-.8972-7.3238-1.6509a5.9986,5.9986,0,0,1-4.1081-3.9348c-.6758-2.215-1.84-4.34-2.1382-6.591a9.5673,9.5673,0,0,1,1.1473-4.8807,7.7534,7.7534,0,0,1,6.7468-4.5553,48.2657,48.2657,0,0,1,8.5867.452C57.0136,13.6176,60.3538,18.2137,60.5136,19.7078Z" fill="#bbd3e2"/></svg>