<svg id="Layer_2" data-name="Layer 2" xmlns="http://www.w3.org/2000/svg" width="16" height="16" viewBox="0 0 16 16"><g style="isolation:isolate"><path d="M8,15.649a7.669,7.669,0,1,1,7.669-7.67A7.678,7.678,0,0,1,8,15.649Z" fill="#d95900"/><path d="M8,.56A7.42,7.42,0,1,1,.581,7.98,7.419,7.419,0,0,1,8,.56m0-.5a7.92,7.92,0,1,0,7.919,7.92A7.928,7.928,0,0,0,8,.06Z" fill="#fff"/></g><path d="M13.848,5.029c0,2.4-2.618,3.53-5.848,3.53S2.152,7.425,2.152,5.029,4.77.69,8,.69,13.848,2.633,13.848,5.029Z" fill="#ff6900" style="isolation:isolate"/><path d="M12.421,4.358c0,1.811-1.979,2.668-4.421,2.668S3.579,6.169,3.579,4.358,5.558,1.077,8,1.077,12.421,2.546,12.421,4.358Z" fill="#ff9100" style="isolation:isolate"/><path d="M10.685,3.9c0,1.1-1.2,1.675-2.685,1.675S5.315,5,5.315,3.9,6.517,1.909,8,1.909,10.685,2.8,10.685,3.9Z" fill="#ffb300"/><path d="M9.468,3.278c0,.61-.666.786-1.487.786s-1.488-.176-1.488-.786.666-1.1,1.488-1.1S9.468,2.669,9.468,3.278Z" fill="#ffe8b3"/><path d="M2.245,11.468C2.245,9.317,4.821,8.651,8,8.651s5.755.666,5.755,2.817S10.312,15.361,8,15.361,2.245,13.618,2.245,11.468Z" fill="#ff6900" style="isolation:isolate"/><path d="M10.534,12.7A2.39,2.39,0,0,1,8,14.916,2.39,2.39,0,0,1,5.466,12.7c0-1.223,1.134-1.84,2.534-1.84S10.534,11.479,10.534,12.7Z" fill="#d95900" style="isolation:isolate"/></svg>